M48
; DRILL file {KiCad (6.0.8)} date Sun Mar 12 18:26:40 2023
; FORMAT={-:-/ absolute / metric / decimal}
; #@! TF.CreationDate,2023-03-12T18:26:40+08:00
; #@! TF.GenerationSoftware,Kicad,Pcbnew,(6.0.8)
; #@! TF.FileFunction,Plated,1,4,PTH
FMAT,2
METRIC
; #@! TA.AperFunction,Plated,PTH,ComponentDrill
T1C0.200
; #@! TA.AperFunction,Plated,PTH,ViaDrill
T2C0.250
; #@! TA.AperFunction,Plated,PTH,ViaDrill
T3C0.300
; #@! TA.AperFunction,Plated,PTH,ComponentDrill
T4C0.500
; #@! TA.AperFunction,Plated,PTH,ComponentDrill
T5C1.000
; #@! TA.AperFunction,Plated,PTH,ComponentDrill
T6C1.200
; #@! TA.AperFunction,Plated,PTH,ComponentDrill
T7C3.200
%
G90
G05
T1
X48.8Y27.375
X48.8Y26.175
X48.8Y24.975
X48.8Y23.775
X48.8Y22.575
X48.8Y21.375
X48.8Y20.175
X48.8Y18.975
X50.0Y27.375
X50.0Y26.175
X50.0Y24.975
X50.0Y23.775
X50.0Y22.575
X50.0Y21.375
X50.0Y20.175
X50.0Y18.975
X51.2Y27.375
X51.2Y26.175
X51.2Y24.975
X51.2Y23.775
X51.2Y22.575
X51.2Y21.375
X51.2Y20.175
X51.2Y18.975
T2
X44.247Y21.174
X44.651Y21.692
X44.678Y20.674
X45.009Y20.172
X45.034Y22.177
X45.225Y19.667
X45.364Y22.676
X45.422Y19.154
X45.618Y17.013
X45.745Y23.175
T3
X1.346Y8.555
X1.346Y7.183
X1.371Y35.53
X1.422Y38.679
X6.197Y7.437
X7.061Y1.392
X7.493Y6.726
X7.95Y44.547
X8.077Y40.026
X8.153Y38.756
X8.179Y42.413
X8.382Y4.77
X8.89Y8.885
X10.185Y13.254
X10.592Y9.571
X10.82Y12.34
X11.43Y8.225
X11.582Y3.145
X11.709Y4.72
X11.785Y36.673
X12.293Y41.346
X12.293Y38.603
X13.259Y45.156
X13.411Y4.593
X13.64Y8.225
X15.087Y18.004
X15.672Y7.488
X16.23Y17.978
X16.484Y44.826
X16.586Y2.434
X16.815Y8.403
X16.815Y6.599
X17.577Y18.004
X18.339Y40.864
X18.381Y8.403
X18.381Y6.599
X18.483Y2.434
X18.491Y43.023
X18.542Y37.689
X18.72Y19.731
X19.685Y21.712
X19.947Y8.403
X19.947Y6.599
X20.379Y2.434
X20.675Y28.138
X20.726Y17.953
X21.514Y8.403
X21.514Y6.599
X21.742Y43.023
X22.276Y2.434
X22.301Y34.641
X22.784Y7.387
X22.936Y8.479
X23.571Y4.491
X23.774Y42.997
X24.282Y12.34
X24.714Y4.643
X25.247Y38.375
X25.298Y41.219
X25.527Y8.479
X25.679Y23.109
X25.755Y29.815
X25.755Y27.605
X25.933Y42.972
X26.39Y11.781
X26.822Y3.297
X26.873Y10.689
X26.898Y8.149
X27.076Y6.625
X27.127Y18.588
X27.152Y4.897
X27.61Y27.402
X27.838Y29.51
X27.991Y42.997
X28.245Y18.537
X28.549Y4.135
X29.616Y42.921
X30.581Y39.797
X30.656Y27.715
X30.656Y26.935
X30.656Y26.156
X30.658Y28.494
X31.267Y37.587
X31.293Y35.555
X31.521Y18.867
X31.648Y44.039
X31.699Y12.187
X32.029Y42.566
X32.055Y38.984
X32.156Y7.26
X32.182Y3.678
X32.309Y19.121
X33.071Y42.566
X33.115Y38.984
X33.198Y7.26
X33.242Y3.678
X33.274Y23.617
X33.279Y19.123
X34.112Y42.566
X34.175Y38.984
X34.239Y7.26
X34.303Y3.678
X34.645Y8.53
X34.874Y44.242
X34.925Y12.136
X35.153Y42.566
X35.236Y38.984
X35.28Y7.26
X35.363Y3.678
X36.195Y42.566
X36.271Y8.53
X36.296Y38.984
X36.322Y7.26
X36.423Y3.678
X36.825Y14.316
X36.982Y42.007
X36.982Y40.8
X36.982Y39.594
X37.002Y13.038
X37.109Y6.701
X37.109Y5.494
X37.109Y4.288
X37.312Y9.393
X37.795Y10.638
X38.024Y35.454
X38.557Y44.14
X38.76Y8.885
X39.116Y14.354
X39.649Y37.689
X39.725Y38.603
X39.852Y3.399
X39.929Y10.892
X39.981Y7.723
X40.97Y37.689
X41.021Y11.349
X41.046Y38.603
X41.173Y44.09
X41.199Y3.399
X41.335Y7.723
X41.58Y35.86
X42.291Y37.689
X42.367Y38.603
X42.545Y3.399
X42.689Y7.723
X42.977Y33.752
X43.053Y25.446
X43.154Y24.1
X43.332Y35.606
X43.408Y44.445
X43.612Y37.689
X43.688Y38.603
X43.789Y24.557
X43.891Y3.399
X44.043Y7.723
X44.729Y6.904
X44.729Y5.431
X44.729Y3.958
X45.059Y42.286
X45.059Y41.372
X45.059Y40.432
X45.364Y43.785
X46.761Y1.875
X46.952Y42.286
X46.952Y41.379
X46.952Y40.432
X47.041Y44.801
X47.371Y17.369
X47.549Y5.024
X48.234Y16.302
X48.844Y42.286
X48.844Y41.346
X48.844Y40.432
X48.895Y17.216
X49.098Y44.521
X49.123Y5.024
X49.225Y7.158
X49.606Y16.454
X49.809Y2.129
X50.063Y29.281
X50.292Y9.495
X50.317Y30.831
X50.343Y5.405
X50.363Y6.98
X50.368Y13.0
X50.444Y39.568
X50.444Y33.295
X50.546Y36.393
X50.571Y36.978
X50.622Y15.464
X51.054Y29.129
X51.054Y9.495
X51.13Y30.831
X51.13Y13.0
X51.135Y6.98
X51.196Y39.568
X51.206Y33.295
X51.282Y36.393
X51.301Y36.978
X51.327Y15.464
X51.562Y3.78
X51.816Y9.495
X51.867Y33.295
X51.867Y30.831
X51.892Y13.0
X51.907Y6.98
X51.948Y39.568
X52.019Y36.393
X52.032Y36.978
X52.032Y15.464
X52.095Y29.078
X52.171Y2.154
X52.248Y41.956
X52.578Y33.295
X52.578Y9.495
X52.629Y30.831
X52.654Y13.0
X52.679Y6.98
X52.7Y39.568
X52.737Y15.464
X52.756Y36.393
X52.762Y36.978
X53.289Y33.295
X53.34Y9.495
X53.416Y13.0
X53.416Y5.075
X53.441Y30.78
X53.441Y15.464
X53.452Y39.568
X53.452Y6.98
X53.492Y36.978
X53.492Y36.393
X53.568Y44.217
X54.051Y8.276
X54.203Y39.568
X54.224Y6.98
X54.229Y38.781
X54.229Y37.994
X54.229Y37.206
X54.229Y36.419
X54.28Y7.641
X55.016Y39.594
X55.016Y38.815
X55.016Y38.036
X55.016Y37.257
X55.042Y2.23
X55.169Y43.48
X56.87Y32.05
X56.87Y31.05
X56.87Y30.05
X56.89Y15.311
X56.89Y14.111
X56.89Y12.911
X56.921Y5.355
X56.972Y44.826
X57.226Y43.277
X57.556Y41.473
X57.861Y33.066
X57.87Y32.05
X57.87Y31.05
X57.87Y30.05
X58.09Y15.311
X58.09Y14.111
X58.09Y12.911
X58.852Y33.066
X58.87Y32.05
X58.87Y31.05
X58.87Y30.05
X58.902Y35.809
X58.902Y18.232
X59.233Y20.671
X59.29Y15.311
X59.29Y14.111
X59.29Y12.911
X59.309Y38.222
X59.36Y9.571
X59.436Y27.275
X59.614Y37.333
X59.741Y19.706
X59.969Y3.424
X60.071Y28.9
X60.122Y28.062
X60.477Y10.435
X60.503Y43.023
X60.528Y34.412
X60.553Y11.476
X60.655Y35.403
X60.655Y33.244
X60.655Y32.406
X60.68Y29.535
X60.731Y17.191
X60.757Y12.771
X60.807Y18.055
X60.884Y28.621
X61.119Y7.361
X61.138Y9.131
X61.138Y8.555
X61.138Y7.979
X61.163Y38.679
X61.163Y37.981
X61.163Y37.282
X61.188Y21.306
X61.188Y20.671
X61.188Y20.036
X61.214Y26.259
X61.214Y25.611
X61.246Y24.963
X61.366Y13.914
X61.569Y21.788
X61.62Y31.898
X61.773Y38.933
X61.773Y37.587
X61.773Y8.734
X61.785Y7.361
X61.798Y32.837
X61.836Y21.306
X61.836Y20.036
X61.849Y24.354
X61.881Y26.259
X61.976Y24.963
X62.204Y21.788
X62.382Y14.448
X62.382Y13.178
X62.408Y3.424
X62.452Y7.361
X62.483Y8.734
X62.484Y37.587
X62.484Y21.306
X62.484Y20.036
X62.522Y38.933
X62.547Y26.259
X62.585Y24.379
X62.706Y24.963
X62.839Y21.788
X62.89Y32.177
X62.992Y43.023
X63.119Y7.361
X63.131Y21.306
X63.131Y20.036
X63.194Y8.734
X63.195Y37.587
X63.214Y26.259
X63.22Y24.379
X63.271Y38.933
X63.271Y33.142
X63.322Y14.295
X63.436Y24.963
X63.474Y21.788
X63.779Y21.306
X63.779Y20.671
X63.779Y20.036
X63.786Y7.361
X63.805Y9.266
X63.805Y8.657
X63.805Y8.047
X63.881Y26.259
X63.881Y25.675
X63.906Y24.405
X63.982Y38.833
X63.982Y38.21
X63.982Y37.587
X63.982Y36.964
X64.16Y34.946
X64.167Y24.963
X64.313Y28.367
X64.363Y18.029
X64.414Y16.962
X64.44Y29.612
X64.465Y32.329
X64.465Y14.524
X64.465Y13.406
X64.516Y33.269
X64.541Y34.082
X64.541Y11.578
X64.617Y12.34
X64.871Y3.424
X65.049Y10.841
X65.227Y35.758
X65.252Y18.131
X65.278Y28.037
X65.506Y43.048
X65.71Y12.543
X65.837Y34.234
X66.04Y21.052
X66.065Y33.32
X66.065Y19.477
X66.141Y20.29
X66.141Y18.69
X66.141Y17.928
X66.141Y13.457
X66.167Y28.596
X66.167Y27.427
X66.167Y25.548
X66.167Y24.455
X66.167Y17.115
X66.192Y32.38
X66.192Y14.905
X66.218Y29.281
X66.268Y10.892
X66.294Y37.714
X66.37Y7.361
X66.726Y35.25
X67.03Y11.933
X67.056Y32.99
X67.081Y13.33
X67.132Y26.386
X67.157Y24.151
X67.208Y19.528
X67.284Y28.062
X67.335Y15.515
X67.411Y31.415
X67.488Y21.788
X67.538Y18.791
X67.564Y27.173
X67.564Y14.473
X67.589Y20.341
X67.615Y34.006
X67.97Y25.522
X67.996Y10.841
X68.021Y24.354
X68.097Y30.755
X68.097Y12.263
X68.173Y35.352
X68.275Y32.482
X68.453Y14.448
X68.478Y20.366
X68.58Y16.226
X68.605Y13.152
X68.656Y19.096
X68.707Y29.51
X68.783Y34.438
X68.834Y27.097
X69.062Y11.908
X69.088Y21.636
X69.418Y32.075
X69.596Y33.625
X70.434Y32.634
T4
X1.6Y42.35
X1.6Y4.0
X2.303Y44.047
X2.303Y40.653
X2.303Y5.697
X2.303Y2.303
X4.0Y44.75
X4.0Y39.95
X4.0Y6.4
X4.0Y1.6
X5.697Y44.047
X5.697Y40.653
X5.697Y5.697
X5.697Y2.303
X6.4Y42.35
X6.4Y4.0
X68.6Y42.35
X68.6Y4.0
X69.303Y44.047
X69.303Y40.653
X69.303Y5.697
X69.303Y2.303
X71.0Y44.75
X71.0Y39.95
X71.0Y6.4
X71.0Y1.6
X72.697Y44.047
X72.697Y40.653
X72.697Y5.697
X72.697Y2.303
X73.4Y42.35
X73.4Y4.0
T5
X3.759Y35.352
X6.299Y35.352
X11.025Y43.0
X11.025Y40.46
X11.025Y37.92
X11.025Y35.38
X13.565Y43.0
X13.565Y40.46
X13.565Y37.92
X13.565Y35.38
T6
X22.824Y39.772
X27.824Y39.772
X70.637Y30.384
X70.637Y25.384
X70.64Y20.385
X70.64Y15.385
T7
X4.0Y42.35
X4.0Y4.0
X71.0Y42.35
X71.0Y4.0
T0
M30
