%TF.GenerationSoftware,KiCad,Pcbnew,(6.0.8)*%
%TF.CreationDate,2023-03-12T18:26:40+08:00*%
%TF.ProjectId,STEP_MOTO,53544550-5f4d-44f5-944f-2e6b69636164,rev?*%
%TF.SameCoordinates,Original*%
%TF.FileFunction,Soldermask,Top*%
%TF.FilePolarity,Negative*%
%FSLAX46Y46*%
G04 Gerber Fmt 4.6, Leading zero omitted, Abs format (unit mm)*
G04 Created by KiCad (PCBNEW (6.0.8)) date 2023-03-12 18:26:40*
%MOMM*%
%LPD*%
G01*
G04 APERTURE LIST*
G04 Aperture macros list*
%AMRoundRect*
0 Rectangle with rounded corners*
0 $1 Rounding radius*
0 $2 $3 $4 $5 $6 $7 $8 $9 X,Y pos of 4 corners*
0 Add a 4 corners polygon primitive as box body*
4,1,4,$2,$3,$4,$5,$6,$7,$8,$9,$2,$3,0*
0 Add four circle primitives for the rounded corners*
1,1,$1+$1,$2,$3*
1,1,$1+$1,$4,$5*
1,1,$1+$1,$6,$7*
1,1,$1+$1,$8,$9*
0 Add four rect primitives between the rounded corners*
20,1,$1+$1,$2,$3,$4,$5,0*
20,1,$1+$1,$4,$5,$6,$7,0*
20,1,$1+$1,$6,$7,$8,$9,0*
20,1,$1+$1,$8,$9,$2,$3,0*%
%AMFreePoly0*
4,1,21,0.800354,0.825354,0.800500,0.825000,0.800500,0.300000,0.825000,0.300000,0.825000,-0.300000,0.800500,-0.300000,0.800500,-0.825000,0.800354,-0.825354,0.800000,-0.825500,-0.290000,-0.825500,-0.290354,-0.825354,-0.290500,-0.825000,-0.290500,-0.300000,-0.825000,-0.300000,-0.825000,0.300000,-0.290500,0.300000,-0.290500,0.825000,-0.290354,0.825354,-0.290000,0.825500,0.800000,0.825500,
0.800354,0.825354,0.800354,0.825354,$1*%
%AMFreePoly1*
4,1,21,0.300354,0.825354,0.300500,0.825000,0.300500,0.300000,0.825000,0.300000,0.825000,-0.300000,0.300500,-0.300000,0.300500,-0.825000,0.300354,-0.825354,0.300000,-0.825500,-0.800000,-0.825500,-0.800354,-0.825354,-0.800500,-0.825000,-0.800500,-0.300000,-0.825000,-0.300000,-0.825000,0.300000,-0.800500,0.300000,-0.800500,0.825000,-0.800354,0.825354,-0.800000,0.825500,0.300000,0.825500,
0.300354,0.825354,0.300354,0.825354,$1*%
G04 Aperture macros list end*
%ADD10C,0.010000*%
%ADD11R,1.000000X2.500000*%
%ADD12R,1.800000X1.000000*%
%ADD13RoundRect,0.249999X1.425001X-0.450001X1.425001X0.450001X-1.425001X0.450001X-1.425001X-0.450001X0*%
%ADD14RoundRect,0.237500X0.250000X0.237500X-0.250000X0.237500X-0.250000X-0.237500X0.250000X-0.237500X0*%
%ADD15RoundRect,0.237500X-0.250000X-0.237500X0.250000X-0.237500X0.250000X0.237500X-0.250000X0.237500X0*%
%ADD16RoundRect,0.046900X0.538100X-0.288100X0.538100X0.288100X-0.538100X0.288100X-0.538100X-0.288100X0*%
%ADD17RoundRect,0.237500X0.237500X-0.250000X0.237500X0.250000X-0.237500X0.250000X-0.237500X-0.250000X0*%
%ADD18RoundRect,0.237500X0.237500X-0.300000X0.237500X0.300000X-0.237500X0.300000X-0.237500X-0.300000X0*%
%ADD19RoundRect,0.042000X-0.943000X-0.258000X0.943000X-0.258000X0.943000X0.258000X-0.943000X0.258000X0*%
%ADD20RoundRect,0.237500X-0.237500X0.300000X-0.237500X-0.300000X0.237500X-0.300000X0.237500X0.300000X0*%
%ADD21RoundRect,0.250000X1.950000X1.000000X-1.950000X1.000000X-1.950000X-1.000000X1.950000X-1.000000X0*%
%ADD22RoundRect,0.249999X-1.425001X0.450001X-1.425001X-0.450001X1.425001X-0.450001X1.425001X0.450001X0*%
%ADD23RoundRect,0.250000X-0.325000X-0.450000X0.325000X-0.450000X0.325000X0.450000X-0.325000X0.450000X0*%
%ADD24RoundRect,0.237500X0.300000X0.237500X-0.300000X0.237500X-0.300000X-0.237500X0.300000X-0.237500X0*%
%ADD25R,2.300000X2.300000*%
%ADD26C,2.300000*%
%ADD27C,0.800000*%
%ADD28C,6.400000*%
%ADD29RoundRect,0.250000X-0.450000X0.325000X-0.450000X-0.325000X0.450000X-0.325000X0.450000X0.325000X0*%
%ADD30R,1.700000X1.700000*%
%ADD31O,1.700000X1.700000*%
%ADD32RoundRect,0.250000X-0.650000X0.412500X-0.650000X-0.412500X0.650000X-0.412500X0.650000X0.412500X0*%
%ADD33FreePoly0,270.000000*%
%ADD34FreePoly1,270.000000*%
%ADD35RoundRect,0.250000X-0.337500X-0.475000X0.337500X-0.475000X0.337500X0.475000X-0.337500X0.475000X0*%
%ADD36RoundRect,0.250000X0.650000X-0.412500X0.650000X0.412500X-0.650000X0.412500X-0.650000X-0.412500X0*%
%ADD37RoundRect,0.237500X-0.237500X0.250000X-0.237500X-0.250000X0.237500X-0.250000X0.237500X0.250000X0*%
%ADD38RoundRect,0.020500X-0.764500X-0.184500X0.764500X-0.184500X0.764500X0.184500X-0.764500X0.184500X0*%
%ADD39R,2.480000X3.400000*%
%ADD40RoundRect,0.237500X-0.300000X-0.237500X0.300000X-0.237500X0.300000X0.237500X-0.300000X0.237500X0*%
%ADD41R,2.900000X5.400000*%
%ADD42RoundRect,0.162500X-0.980500X-0.162500X0.980500X-0.162500X0.980500X0.162500X-0.980500X0.162500X0*%
%ADD43R,2.300000X3.500000*%
G04 APERTURE END LIST*
%TO.C,U1*%
G36*
X53700000Y23975000D02*
G01*
X52100000Y23975000D01*
X52100000Y24375000D01*
X53700000Y24375000D01*
X53700000Y23975000D01*
G37*
D10*
X53700000Y23975000D02*
X52100000Y23975000D01*
X52100000Y24375000D01*
X53700000Y24375000D01*
X53700000Y23975000D01*
G36*
X51450000Y20825000D02*
G01*
X48550000Y20825000D01*
X48550000Y25525000D01*
X51450000Y25525000D01*
X51450000Y20825000D01*
G37*
X51450000Y20825000D02*
X48550000Y20825000D01*
X48550000Y25525000D01*
X51450000Y25525000D01*
X51450000Y20825000D01*
G36*
X47900000Y18975000D02*
G01*
X46300000Y18975000D01*
X46300000Y19375000D01*
X47900000Y19375000D01*
X47900000Y18975000D01*
G37*
X47900000Y18975000D02*
X46300000Y18975000D01*
X46300000Y19375000D01*
X47900000Y19375000D01*
X47900000Y18975000D01*
G36*
X47900000Y25475000D02*
G01*
X46300000Y25475000D01*
X46300000Y25875000D01*
X47900000Y25875000D01*
X47900000Y25475000D01*
G37*
X47900000Y25475000D02*
X46300000Y25475000D01*
X46300000Y25875000D01*
X47900000Y25875000D01*
X47900000Y25475000D01*
G36*
X47900000Y21475000D02*
G01*
X46300000Y21475000D01*
X46300000Y21875000D01*
X47900000Y21875000D01*
X47900000Y21475000D01*
G37*
X47900000Y21475000D02*
X46300000Y21475000D01*
X46300000Y21875000D01*
X47900000Y21875000D01*
X47900000Y21475000D01*
G36*
X53700000Y20475000D02*
G01*
X52100000Y20475000D01*
X52100000Y20875000D01*
X53700000Y20875000D01*
X53700000Y20475000D01*
G37*
X53700000Y20475000D02*
X52100000Y20475000D01*
X52100000Y20875000D01*
X53700000Y20875000D01*
X53700000Y20475000D01*
G36*
X47900000Y19975000D02*
G01*
X46300000Y19975000D01*
X46300000Y20375000D01*
X47900000Y20375000D01*
X47900000Y19975000D01*
G37*
X47900000Y19975000D02*
X46300000Y19975000D01*
X46300000Y20375000D01*
X47900000Y20375000D01*
X47900000Y19975000D01*
G36*
X47900000Y22475000D02*
G01*
X46300000Y22475000D01*
X46300000Y22875000D01*
X47900000Y22875000D01*
X47900000Y22475000D01*
G37*
X47900000Y22475000D02*
X46300000Y22475000D01*
X46300000Y22875000D01*
X47900000Y22875000D01*
X47900000Y22475000D01*
G36*
X53700000Y18475000D02*
G01*
X52100000Y18475000D01*
X52100000Y18875000D01*
X53700000Y18875000D01*
X53700000Y18475000D01*
G37*
X53700000Y18475000D02*
X52100000Y18475000D01*
X52100000Y18875000D01*
X53700000Y18875000D01*
X53700000Y18475000D01*
G36*
X47900000Y19475000D02*
G01*
X46300000Y19475000D01*
X46300000Y19875000D01*
X47900000Y19875000D01*
X47900000Y19475000D01*
G37*
X47900000Y19475000D02*
X46300000Y19475000D01*
X46300000Y19875000D01*
X47900000Y19875000D01*
X47900000Y19475000D01*
G36*
X47900000Y24475000D02*
G01*
X46300000Y24475000D01*
X46300000Y24875000D01*
X47900000Y24875000D01*
X47900000Y24475000D01*
G37*
X47900000Y24475000D02*
X46300000Y24475000D01*
X46300000Y24875000D01*
X47900000Y24875000D01*
X47900000Y24475000D01*
G36*
X53700000Y24975000D02*
G01*
X52100000Y24975000D01*
X52100000Y25375000D01*
X53700000Y25375000D01*
X53700000Y24975000D01*
G37*
X53700000Y24975000D02*
X52100000Y24975000D01*
X52100000Y25375000D01*
X53700000Y25375000D01*
X53700000Y24975000D01*
G36*
X47900000Y25975000D02*
G01*
X46300000Y25975000D01*
X46300000Y26375000D01*
X47900000Y26375000D01*
X47900000Y25975000D01*
G37*
X47900000Y25975000D02*
X46300000Y25975000D01*
X46300000Y26375000D01*
X47900000Y26375000D01*
X47900000Y25975000D01*
G36*
X53700000Y24475000D02*
G01*
X52100000Y24475000D01*
X52100000Y24875000D01*
X53700000Y24875000D01*
X53700000Y24475000D01*
G37*
X53700000Y24475000D02*
X52100000Y24475000D01*
X52100000Y24875000D01*
X53700000Y24875000D01*
X53700000Y24475000D01*
G36*
X53700000Y22475000D02*
G01*
X52100000Y22475000D01*
X52100000Y22875000D01*
X53700000Y22875000D01*
X53700000Y22475000D01*
G37*
X53700000Y22475000D02*
X52100000Y22475000D01*
X52100000Y22875000D01*
X53700000Y22875000D01*
X53700000Y22475000D01*
G36*
X47900000Y27475000D02*
G01*
X46300000Y27475000D01*
X46300000Y27875000D01*
X47900000Y27875000D01*
X47900000Y27475000D01*
G37*
X47900000Y27475000D02*
X46300000Y27475000D01*
X46300000Y27875000D01*
X47900000Y27875000D01*
X47900000Y27475000D01*
G36*
X47900000Y20475000D02*
G01*
X46300000Y20475000D01*
X46300000Y20875000D01*
X47900000Y20875000D01*
X47900000Y20475000D01*
G37*
X47900000Y20475000D02*
X46300000Y20475000D01*
X46300000Y20875000D01*
X47900000Y20875000D01*
X47900000Y20475000D01*
G36*
X53700000Y19975000D02*
G01*
X52100000Y19975000D01*
X52100000Y20375000D01*
X53700000Y20375000D01*
X53700000Y19975000D01*
G37*
X53700000Y19975000D02*
X52100000Y19975000D01*
X52100000Y20375000D01*
X53700000Y20375000D01*
X53700000Y19975000D01*
G36*
X53700000Y26475000D02*
G01*
X52100000Y26475000D01*
X52100000Y26875000D01*
X53700000Y26875000D01*
X53700000Y26475000D01*
G37*
X53700000Y26475000D02*
X52100000Y26475000D01*
X52100000Y26875000D01*
X53700000Y26875000D01*
X53700000Y26475000D01*
G36*
X53700000Y18975000D02*
G01*
X52100000Y18975000D01*
X52100000Y19375000D01*
X53700000Y19375000D01*
X53700000Y18975000D01*
G37*
X53700000Y18975000D02*
X52100000Y18975000D01*
X52100000Y19375000D01*
X53700000Y19375000D01*
X53700000Y18975000D01*
G36*
X53700000Y25475000D02*
G01*
X52100000Y25475000D01*
X52100000Y25875000D01*
X53700000Y25875000D01*
X53700000Y25475000D01*
G37*
X53700000Y25475000D02*
X52100000Y25475000D01*
X52100000Y25875000D01*
X53700000Y25875000D01*
X53700000Y25475000D01*
G36*
X53700000Y23475000D02*
G01*
X52100000Y23475000D01*
X52100000Y23875000D01*
X53700000Y23875000D01*
X53700000Y23475000D01*
G37*
X53700000Y23475000D02*
X52100000Y23475000D01*
X52100000Y23875000D01*
X53700000Y23875000D01*
X53700000Y23475000D01*
G36*
X47900000Y20975000D02*
G01*
X46300000Y20975000D01*
X46300000Y21375000D01*
X47900000Y21375000D01*
X47900000Y20975000D01*
G37*
X47900000Y20975000D02*
X46300000Y20975000D01*
X46300000Y21375000D01*
X47900000Y21375000D01*
X47900000Y20975000D01*
G36*
X53700000Y21475000D02*
G01*
X52100000Y21475000D01*
X52100000Y21875000D01*
X53700000Y21875000D01*
X53700000Y21475000D01*
G37*
X53700000Y21475000D02*
X52100000Y21475000D01*
X52100000Y21875000D01*
X53700000Y21875000D01*
X53700000Y21475000D01*
G36*
X47900000Y23975000D02*
G01*
X46300000Y23975000D01*
X46300000Y24375000D01*
X47900000Y24375000D01*
X47900000Y23975000D01*
G37*
X47900000Y23975000D02*
X46300000Y23975000D01*
X46300000Y24375000D01*
X47900000Y24375000D01*
X47900000Y23975000D01*
G36*
X53700000Y20975000D02*
G01*
X52100000Y20975000D01*
X52100000Y21375000D01*
X53700000Y21375000D01*
X53700000Y20975000D01*
G37*
X53700000Y20975000D02*
X52100000Y20975000D01*
X52100000Y21375000D01*
X53700000Y21375000D01*
X53700000Y20975000D01*
G36*
X53700000Y19475000D02*
G01*
X52100000Y19475000D01*
X52100000Y19875000D01*
X53700000Y19875000D01*
X53700000Y19475000D01*
G37*
X53700000Y19475000D02*
X52100000Y19475000D01*
X52100000Y19875000D01*
X53700000Y19875000D01*
X53700000Y19475000D01*
G36*
X47900000Y21975000D02*
G01*
X46300000Y21975000D01*
X46300000Y22375000D01*
X47900000Y22375000D01*
X47900000Y21975000D01*
G37*
X47900000Y21975000D02*
X46300000Y21975000D01*
X46300000Y22375000D01*
X47900000Y22375000D01*
X47900000Y21975000D01*
G36*
X47900000Y26975000D02*
G01*
X46300000Y26975000D01*
X46300000Y27375000D01*
X47900000Y27375000D01*
X47900000Y26975000D01*
G37*
X47900000Y26975000D02*
X46300000Y26975000D01*
X46300000Y27375000D01*
X47900000Y27375000D01*
X47900000Y26975000D01*
G36*
X53700000Y21975000D02*
G01*
X52100000Y21975000D01*
X52100000Y22375000D01*
X53700000Y22375000D01*
X53700000Y21975000D01*
G37*
X53700000Y21975000D02*
X52100000Y21975000D01*
X52100000Y22375000D01*
X53700000Y22375000D01*
X53700000Y21975000D01*
G36*
X47900000Y26475000D02*
G01*
X46300000Y26475000D01*
X46300000Y26875000D01*
X47900000Y26875000D01*
X47900000Y26475000D01*
G37*
X47900000Y26475000D02*
X46300000Y26475000D01*
X46300000Y26875000D01*
X47900000Y26875000D01*
X47900000Y26475000D01*
G36*
X53700000Y27475000D02*
G01*
X52100000Y27475000D01*
X52100000Y27875000D01*
X53700000Y27875000D01*
X53700000Y27475000D01*
G37*
X53700000Y27475000D02*
X52100000Y27475000D01*
X52100000Y27875000D01*
X53700000Y27875000D01*
X53700000Y27475000D01*
G36*
X47900000Y18475000D02*
G01*
X46300000Y18475000D01*
X46300000Y18875000D01*
X47900000Y18875000D01*
X47900000Y18475000D01*
G37*
X47900000Y18475000D02*
X46300000Y18475000D01*
X46300000Y18875000D01*
X47900000Y18875000D01*
X47900000Y18475000D01*
G36*
X47900000Y24975000D02*
G01*
X46300000Y24975000D01*
X46300000Y25375000D01*
X47900000Y25375000D01*
X47900000Y24975000D01*
G37*
X47900000Y24975000D02*
X46300000Y24975000D01*
X46300000Y25375000D01*
X47900000Y25375000D01*
X47900000Y24975000D01*
G36*
X47900000Y23475000D02*
G01*
X46300000Y23475000D01*
X46300000Y23875000D01*
X47900000Y23875000D01*
X47900000Y23475000D01*
G37*
X47900000Y23475000D02*
X46300000Y23475000D01*
X46300000Y23875000D01*
X47900000Y23875000D01*
X47900000Y23475000D01*
G36*
X53700000Y25975000D02*
G01*
X52100000Y25975000D01*
X52100000Y26375000D01*
X53700000Y26375000D01*
X53700000Y25975000D01*
G37*
X53700000Y25975000D02*
X52100000Y25975000D01*
X52100000Y26375000D01*
X53700000Y26375000D01*
X53700000Y25975000D01*
G36*
X53700000Y22975000D02*
G01*
X52100000Y22975000D01*
X52100000Y23375000D01*
X53700000Y23375000D01*
X53700000Y22975000D01*
G37*
X53700000Y22975000D02*
X52100000Y22975000D01*
X52100000Y23375000D01*
X53700000Y23375000D01*
X53700000Y22975000D01*
G36*
X47900000Y22975000D02*
G01*
X46300000Y22975000D01*
X46300000Y23375000D01*
X47900000Y23375000D01*
X47900000Y22975000D01*
G37*
X47900000Y22975000D02*
X46300000Y22975000D01*
X46300000Y23375000D01*
X47900000Y23375000D01*
X47900000Y22975000D01*
G36*
X53700000Y26975000D02*
G01*
X52100000Y26975000D01*
X52100000Y27375000D01*
X53700000Y27375000D01*
X53700000Y26975000D01*
G37*
X53700000Y26975000D02*
X52100000Y26975000D01*
X52100000Y27375000D01*
X53700000Y27375000D01*
X53700000Y26975000D01*
%TO.C,D4*%
G36*
X15612200Y10254400D02*
G01*
X15112200Y10254400D01*
X15112200Y11029400D01*
X15612200Y11029400D01*
X15612200Y10254400D01*
G37*
X15612200Y10254400D02*
X15112200Y10254400D01*
X15112200Y11029400D01*
X15612200Y11029400D01*
X15612200Y10254400D01*
G36*
X18212200Y9179400D02*
G01*
X17712200Y9179400D01*
X17712200Y9954400D01*
X18212200Y9954400D01*
X18212200Y9179400D01*
G37*
X18212200Y9179400D02*
X17712200Y9179400D01*
X17712200Y9954400D01*
X18212200Y9954400D01*
X18212200Y9179400D01*
G36*
X15612200Y9179400D02*
G01*
X15112200Y9179400D01*
X15112200Y9954400D01*
X15612200Y9954400D01*
X15612200Y9179400D01*
G37*
X15612200Y9179400D02*
X15112200Y9179400D01*
X15112200Y9954400D01*
X15612200Y9954400D01*
X15612200Y9179400D01*
G36*
X18212200Y10254400D02*
G01*
X17712200Y10254400D01*
X17712200Y11029400D01*
X18212200Y11029400D01*
X18212200Y10254400D01*
G37*
X18212200Y10254400D02*
X17712200Y10254400D01*
X17712200Y11029400D01*
X18212200Y11029400D01*
X18212200Y10254400D01*
%TO.C,D5*%
G36*
X15612200Y11490800D02*
G01*
X15112200Y11490800D01*
X15112200Y12265800D01*
X15612200Y12265800D01*
X15612200Y11490800D01*
G37*
X15612200Y11490800D02*
X15112200Y11490800D01*
X15112200Y12265800D01*
X15612200Y12265800D01*
X15612200Y11490800D01*
G36*
X18212200Y11490800D02*
G01*
X17712200Y11490800D01*
X17712200Y12265800D01*
X18212200Y12265800D01*
X18212200Y11490800D01*
G37*
X18212200Y11490800D02*
X17712200Y11490800D01*
X17712200Y12265800D01*
X18212200Y12265800D01*
X18212200Y11490800D01*
G36*
X15612200Y12565800D02*
G01*
X15112200Y12565800D01*
X15112200Y13340800D01*
X15612200Y13340800D01*
X15612200Y12565800D01*
G37*
X15612200Y12565800D02*
X15112200Y12565800D01*
X15112200Y13340800D01*
X15612200Y13340800D01*
X15612200Y12565800D01*
G36*
X18212200Y12565800D02*
G01*
X17712200Y12565800D01*
X17712200Y13340800D01*
X18212200Y13340800D01*
X18212200Y12565800D01*
G37*
X18212200Y12565800D02*
X17712200Y12565800D01*
X17712200Y13340800D01*
X18212200Y13340800D01*
X18212200Y12565800D01*
%TD*%
D11*
%TO.C,U2*%
X8717200Y15575000D03*
X10717200Y15575000D03*
X12717200Y15575000D03*
X14717200Y15575000D03*
X16717200Y15575000D03*
X18717200Y15575000D03*
X20717200Y15575000D03*
X22717200Y15575000D03*
D12*
X24217200Y18175000D03*
X24217200Y20175000D03*
X24217200Y22175000D03*
X24217200Y24175000D03*
X24217200Y26175000D03*
X24217200Y28175000D03*
D11*
X22717200Y30775000D03*
X20717200Y30775000D03*
X18717200Y30775000D03*
X16717200Y30775000D03*
X14717200Y30775000D03*
X12717200Y30775000D03*
X10717200Y30775000D03*
X8717200Y30775000D03*
%TD*%
D13*
%TO.C,R6*%
X51892000Y8273600D03*
X51892000Y14373600D03*
%TD*%
D14*
%TO.C,R16*%
X35837300Y11222000D03*
X34012300Y11222000D03*
%TD*%
D15*
%TO.C,R9*%
X16486300Y33193000D03*
X18311300Y33193000D03*
%TD*%
D16*
%TO.C,U8*%
X24943400Y9645900D03*
X24943400Y10585900D03*
X24943400Y11525900D03*
X22503400Y11525900D03*
X22503400Y9645900D03*
%TD*%
D17*
%TO.C,R13*%
X32435600Y11225800D03*
X32435600Y13050800D03*
%TD*%
D18*
%TO.C,C19*%
X16535200Y3555500D03*
X16535200Y5280500D03*
%TD*%
D15*
%TO.C,R15*%
X34012300Y13050800D03*
X35837300Y13050800D03*
%TD*%
D19*
%TO.C,U7*%
X57530000Y11905000D03*
X57530000Y10635000D03*
X57530000Y9365000D03*
X57530000Y8095000D03*
X62470000Y8095000D03*
X62470000Y9365000D03*
X62470000Y10635000D03*
X62470000Y11905000D03*
%TD*%
D20*
%TO.C,C32*%
X29184400Y12998900D03*
X29184400Y11273900D03*
%TD*%
D21*
%TO.C,C9*%
X41750000Y5550000D03*
X34350000Y5550000D03*
%TD*%
D22*
%TO.C,R1*%
X51942800Y38148000D03*
X51942800Y32048000D03*
%TD*%
D23*
%TO.C,D3*%
X18202600Y3754400D03*
X20252600Y3754400D03*
%TD*%
D24*
%TO.C,C36*%
X37870100Y20620000D03*
X36145100Y20620000D03*
%TD*%
%TO.C,C3*%
X53110100Y17064000D03*
X51385100Y17064000D03*
%TD*%
D25*
%TO.C,J5*%
X27823600Y39771600D03*
D26*
X22823600Y39771600D03*
%TD*%
D20*
%TO.C,C40*%
X20827800Y11551100D03*
X20827800Y9826100D03*
%TD*%
%TO.C,C7*%
X44780000Y33522100D03*
X44780000Y31797100D03*
%TD*%
D27*
%TO.C,REF\u002A\u002A*%
X72697056Y2302944D03*
X71000000Y1600000D03*
X69302944Y2302944D03*
X73400000Y4000000D03*
D28*
X71000000Y4000000D03*
D27*
X69302944Y5697056D03*
X68600000Y4000000D03*
X71000000Y6400000D03*
X72697056Y5697056D03*
%TD*%
D29*
%TO.C,D2*%
X46558000Y10917200D03*
X46558000Y8867200D03*
%TD*%
D27*
%TO.C,REF\u002A\u002A*%
X4000000Y44750000D03*
D28*
X4000000Y42350000D03*
D27*
X6400000Y42350000D03*
X2302944Y40652944D03*
X2302944Y44047056D03*
X4000000Y39950000D03*
X1600000Y42350000D03*
X5697056Y40652944D03*
X5697056Y44047056D03*
%TD*%
D20*
%TO.C,C5*%
X46304000Y33522100D03*
X46304000Y31797100D03*
%TD*%
D18*
%TO.C,C34*%
X37922000Y17268300D03*
X37922000Y18993300D03*
%TD*%
D15*
%TO.C,R14*%
X32539100Y20620000D03*
X34364100Y20620000D03*
%TD*%
D30*
%TO.C,J3*%
X11025000Y43000000D03*
D31*
X11025000Y40460000D03*
X11025000Y37920000D03*
X11025000Y35380000D03*
X13565000Y35380000D03*
X13565000Y37920000D03*
X13565000Y40460000D03*
X13565000Y43000000D03*
%TD*%
D15*
%TO.C,R5*%
X18315100Y5583200D03*
X20140100Y5583200D03*
%TD*%
D32*
%TO.C,C4*%
X48437600Y38742200D03*
X48437600Y35617200D03*
%TD*%
D33*
%TO.C,D4*%
X18612200Y10104400D03*
D34*
X14712200Y10104400D03*
%TD*%
D25*
%TO.C,J2*%
X70639600Y15384800D03*
D26*
X70639600Y20384800D03*
%TD*%
D35*
%TO.C,L1*%
X29696300Y8301000D03*
X31771300Y8301000D03*
%TD*%
D36*
%TO.C,C1*%
X45948400Y35618300D03*
X45948400Y38743300D03*
%TD*%
D37*
%TO.C,R12*%
X27508000Y15538100D03*
X27508000Y13713100D03*
%TD*%
D15*
%TO.C,R11*%
X21517400Y33193000D03*
X23342400Y33193000D03*
%TD*%
D19*
%TO.C,U6*%
X57530000Y20688334D03*
X57530000Y19418334D03*
X57530000Y18148334D03*
X57530000Y16878334D03*
X62470000Y16878334D03*
X62470000Y18148334D03*
X62470000Y19418334D03*
X62470000Y20688334D03*
%TD*%
D17*
%TO.C,R7*%
X8737400Y10841000D03*
X8737400Y12666000D03*
%TD*%
%TO.C,R10*%
X19938800Y33194900D03*
X19938800Y35019900D03*
%TD*%
D38*
%TO.C,U5*%
X29819600Y19034200D03*
X29819600Y18384200D03*
X29819600Y17734200D03*
X29819600Y17084200D03*
X29819600Y16434200D03*
X29819600Y15784200D03*
X29819600Y15134200D03*
X29819600Y14484200D03*
X35559600Y14484200D03*
X35559600Y15134200D03*
X35559600Y15784200D03*
X35559600Y16434200D03*
X35559600Y17084200D03*
X35559600Y17734200D03*
X35559600Y18384200D03*
X35559600Y19034200D03*
D39*
X32689600Y16759200D03*
%TD*%
D19*
%TO.C,U4*%
X57530000Y29471667D03*
X57530000Y28201667D03*
X57530000Y26931667D03*
X57530000Y25661667D03*
X62470000Y25661667D03*
X62470000Y26931667D03*
X62470000Y28201667D03*
X62470000Y29471667D03*
%TD*%
D36*
%TO.C,C31*%
X27101600Y17330300D03*
X27101600Y20455300D03*
%TD*%
D40*
%TO.C,C28*%
X20447900Y13254000D03*
X22172900Y13254000D03*
%TD*%
D18*
%TO.C,C6*%
X48844000Y31846800D03*
X48844000Y33571800D03*
%TD*%
D17*
%TO.C,R8*%
X12369600Y10868300D03*
X12369600Y12693300D03*
%TD*%
D28*
%TO.C,REF\u002A\u002A*%
X71000000Y42350000D03*
D27*
X73400000Y42350000D03*
X72697056Y44047056D03*
X71000000Y39950000D03*
X68600000Y42350000D03*
X69302944Y40652944D03*
X69302944Y44047056D03*
X72697056Y40652944D03*
X71000000Y44750000D03*
%TD*%
D20*
%TO.C,C35*%
X37871200Y13608500D03*
X37871200Y11883500D03*
%TD*%
D30*
%TO.C,J4*%
X6299000Y35352000D03*
D31*
X3759000Y35352000D03*
%TD*%
D41*
%TO.C,L3*%
X40611400Y28595600D03*
X30711400Y28595600D03*
%TD*%
D27*
%TO.C,REF\u002A\u002A*%
X4000000Y6400000D03*
X5697056Y5697056D03*
X2302944Y5697056D03*
D28*
X4000000Y4000000D03*
D27*
X1600000Y4000000D03*
X6400000Y4000000D03*
X4000000Y1600000D03*
X5697056Y2302944D03*
X2302944Y2302944D03*
%TD*%
D19*
%TO.C,U3*%
X57530000Y38255000D03*
X57530000Y36985000D03*
X57530000Y35715000D03*
X57530000Y34445000D03*
X62470000Y34445000D03*
X62470000Y35715000D03*
X62470000Y36985000D03*
X62470000Y38255000D03*
%TD*%
D35*
%TO.C,L2*%
X25450600Y33574000D03*
X27525600Y33574000D03*
%TD*%
D24*
%TO.C,C37*%
X30910500Y20620000D03*
X29185500Y20620000D03*
%TD*%
D21*
%TO.C,C11*%
X41750000Y40800000D03*
X34350000Y40800000D03*
%TD*%
D17*
%TO.C,R4*%
X48894800Y12746000D03*
X48894800Y14571000D03*
%TD*%
D20*
%TO.C,C33*%
X30810000Y12998900D03*
X30810000Y11273900D03*
%TD*%
D17*
%TO.C,R2*%
X46304000Y12746000D03*
X46304000Y14571000D03*
%TD*%
D25*
%TO.C,J1*%
X70637200Y25384400D03*
D26*
X70637200Y30384400D03*
%TD*%
D42*
%TO.C,SW1*%
X29167000Y2586000D03*
X24067000Y2586000D03*
X29167000Y6286000D03*
X24067000Y6286000D03*
%TD*%
D18*
%TO.C,C2*%
X21920000Y3603100D03*
X21920000Y5328100D03*
%TD*%
D33*
%TO.C,D5*%
X18612200Y12415800D03*
D34*
X14712200Y12415800D03*
%TD*%
D43*
%TO.C,D6*%
X41122400Y19357600D03*
X41122400Y13957600D03*
%TD*%
D24*
%TO.C,C27*%
X25576500Y13254000D03*
X23851500Y13254000D03*
%TD*%
D29*
%TO.C,D1*%
X48640800Y10926200D03*
X48640800Y8876200D03*
%TD*%
D42*
%TO.C,SW2*%
X14427000Y2586000D03*
X9327000Y2586000D03*
X14427000Y6286000D03*
X9327000Y6286000D03*
%TD*%
M02*
