%TF.GenerationSoftware,KiCad,Pcbnew,(6.0.8)*%
%TF.CreationDate,2023-03-12T18:26:40+08:00*%
%TF.ProjectId,STEP_MOTO,53544550-5f4d-44f5-944f-2e6b69636164,rev?*%
%TF.SameCoordinates,Original*%
%TF.FileFunction,Legend,Top*%
%TF.FilePolarity,Positive*%
%FSLAX46Y46*%
G04 Gerber Fmt 4.6, Leading zero omitted, Abs format (unit mm)*
G04 Created by KiCad (PCBNEW (6.0.8)) date 2023-03-12 18:26:40*
%MOMM*%
%LPD*%
G01*
G04 APERTURE LIST*
%ADD10C,0.200000*%
%ADD11C,0.050000*%
%ADD12C,0.100000*%
%ADD13C,0.150000*%
%ADD14C,0.250000*%
%ADD15C,0.125000*%
%ADD16C,0.075000*%
%ADD17C,0.098716*%
%ADD18C,0.120000*%
%ADD19C,0.140000*%
%ADD20C,0.127000*%
G04 APERTURE END LIST*
D10*
X45592800Y7691400D02*
X49606000Y7691400D01*
X49606000Y7691400D02*
X49606000Y2611400D01*
X49606000Y2611400D02*
X45592800Y2611400D01*
X45592800Y2611400D02*
X45592800Y7691400D01*
X64007800Y32837400D02*
X66573200Y32837400D01*
X66573200Y32837400D02*
X66573200Y12949200D01*
X66573200Y12949200D02*
X64007800Y12949200D01*
X64007800Y12949200D02*
X64007800Y32837400D01*
D11*
X15750000Y44250000D02*
X17800000Y44250000D01*
X17800000Y44250000D02*
X17800000Y34150000D01*
X17800000Y34150000D02*
X15750000Y34150000D01*
X15750000Y34150000D02*
X15750000Y44250000D01*
X2323900Y38476200D02*
X7581700Y38476200D01*
X7581700Y38476200D02*
X7581700Y37460200D01*
X7581700Y37460200D02*
X2323900Y37460200D01*
X2323900Y37460200D02*
X2323900Y38476200D01*
D12*
X17571428Y34842972D02*
X16971428Y34842972D01*
X16971428Y34985829D01*
X17000000Y35071543D01*
X17057142Y35128686D01*
X17114285Y35157258D01*
X17228571Y35185829D01*
X17314285Y35185829D01*
X17428571Y35157258D01*
X17485714Y35128686D01*
X17542857Y35071543D01*
X17571428Y34985829D01*
X17571428Y34842972D01*
X17571428Y35442972D02*
X16971428Y35442972D01*
X17571428Y36071543D02*
X17285714Y35871543D01*
X17571428Y35728686D02*
X16971428Y35728686D01*
X16971428Y35957258D01*
X17000000Y36014400D01*
X17028571Y36042972D01*
X17085714Y36071543D01*
X17171428Y36071543D01*
X17228571Y36042972D01*
X17257142Y36014400D01*
X17285714Y35957258D01*
X17285714Y35728686D01*
X17257142Y37442972D02*
X17285714Y37528686D01*
X17314285Y37557258D01*
X17371428Y37585829D01*
X17457142Y37585829D01*
X17514285Y37557258D01*
X17542857Y37528686D01*
X17571428Y37471543D01*
X17571428Y37242972D01*
X16971428Y37242972D01*
X16971428Y37442972D01*
X17000000Y37500115D01*
X17028571Y37528686D01*
X17085714Y37557258D01*
X17142857Y37557258D01*
X17200000Y37528686D01*
X17228571Y37500115D01*
X17257142Y37442972D01*
X17257142Y37242972D01*
X17571428Y37842972D02*
X16971428Y37842972D01*
X17571428Y38128686D02*
X16971428Y38128686D01*
X17571428Y38471543D01*
X16971428Y38471543D01*
X17028571Y38728686D02*
X17000000Y38757258D01*
X16971428Y38814400D01*
X16971428Y38957258D01*
X17000000Y39014400D01*
X17028571Y39042972D01*
X17085714Y39071543D01*
X17142857Y39071543D01*
X17228571Y39042972D01*
X17571428Y38700115D01*
X17571428Y39071543D01*
X17257142Y39985829D02*
X17257142Y39785829D01*
X17571428Y39785829D02*
X16971428Y39785829D01*
X16971428Y40071543D01*
X17400000Y40271543D02*
X17400000Y40557258D01*
X17571428Y40214400D02*
X16971428Y40414400D01*
X17571428Y40614400D01*
X16971428Y40814400D02*
X17457142Y40814400D01*
X17514285Y40842972D01*
X17542857Y40871543D01*
X17571428Y40928686D01*
X17571428Y41042972D01*
X17542857Y41100115D01*
X17514285Y41128686D01*
X17457142Y41157258D01*
X16971428Y41157258D01*
X17542857Y41871543D02*
X17571428Y41957258D01*
X17571428Y42100115D01*
X17542857Y42157258D01*
X17514285Y42185829D01*
X17457142Y42214400D01*
X17400000Y42214400D01*
X17342857Y42185829D01*
X17314285Y42157258D01*
X17285714Y42100115D01*
X17257142Y41985829D01*
X17228571Y41928686D01*
X17200000Y41900115D01*
X17142857Y41871543D01*
X17085714Y41871543D01*
X17028571Y41900115D01*
X17000000Y41928686D01*
X16971428Y41985829D01*
X16971428Y42128686D01*
X17000000Y42214400D01*
X16971428Y42385829D02*
X16971428Y42728686D01*
X17571428Y42557258D02*
X16971428Y42557258D01*
X17257142Y42928686D02*
X17257142Y43128686D01*
X17571428Y43214400D02*
X17571428Y42928686D01*
X16971428Y42928686D01*
X16971428Y43214400D01*
X17571428Y43471543D02*
X16971428Y43471543D01*
X16971428Y43700115D01*
X17000000Y43757258D01*
X17028571Y43785829D01*
X17085714Y43814400D01*
X17171428Y43814400D01*
X17228571Y43785829D01*
X17257142Y43757258D01*
X17285714Y43700115D01*
X17285714Y43471543D01*
D13*
X29342857Y45307143D02*
X28942857Y44107143D01*
X28542857Y45307143D01*
X27457142Y44221429D02*
X27514285Y44164286D01*
X27685714Y44107143D01*
X27800000Y44107143D01*
X27971428Y44164286D01*
X28085714Y44278572D01*
X28142857Y44392858D01*
X28200000Y44621429D01*
X28200000Y44792858D01*
X28142857Y45021429D01*
X28085714Y45135715D01*
X27971428Y45250000D01*
X27800000Y45307143D01*
X27685714Y45307143D01*
X27514285Y45250000D01*
X27457142Y45192858D01*
X26257142Y44221429D02*
X26314285Y44164286D01*
X26485714Y44107143D01*
X26600000Y44107143D01*
X26771428Y44164286D01*
X26885714Y44278572D01*
X26942857Y44392858D01*
X27000000Y44621429D01*
X27000000Y44792858D01*
X26942857Y45021429D01*
X26885714Y45135715D01*
X26771428Y45250000D01*
X26600000Y45307143D01*
X26485714Y45307143D01*
X26314285Y45250000D01*
X26257142Y45192858D01*
X23285714Y45250000D02*
X23400000Y45307143D01*
X23571428Y45307143D01*
X23742857Y45250000D01*
X23857142Y45135715D01*
X23914285Y45021429D01*
X23971428Y44792858D01*
X23971428Y44621429D01*
X23914285Y44392858D01*
X23857142Y44278572D01*
X23742857Y44164286D01*
X23571428Y44107143D01*
X23457142Y44107143D01*
X23285714Y44164286D01*
X23228571Y44221429D01*
X23228571Y44621429D01*
X23457142Y44621429D01*
X22714285Y44107143D02*
X22714285Y45307143D01*
X22028571Y44107143D01*
X22028571Y45307143D01*
X21457142Y44107143D02*
X21457142Y45307143D01*
X21171428Y45307143D01*
X21000000Y45250000D01*
X20885714Y45135715D01*
X20828571Y45021429D01*
X20771428Y44792858D01*
X20771428Y44621429D01*
X20828571Y44392858D01*
X20885714Y44278572D01*
X21000000Y44164286D01*
X21171428Y44107143D01*
X21457142Y44107143D01*
X46319228Y7240822D02*
X46997800Y7240822D01*
X46176371Y6990822D02*
X47104942Y6990822D01*
X46390657Y7419393D02*
X46247800Y7097965D01*
X46640657Y7455108D02*
X46640657Y6990822D01*
X46569228Y6847965D01*
X46426371Y6705108D01*
X46176371Y6597965D01*
X46640657Y6990822D02*
X46712085Y6847965D01*
X46854942Y6705108D01*
X47104942Y6597965D01*
X48390657Y7240822D02*
X48783514Y7240822D01*
X47854942Y7240822D02*
X48283514Y7240822D01*
X47890657Y6705108D02*
X48212085Y6705108D01*
X47890657Y6990822D02*
X47890657Y6633679D01*
X48069228Y7455108D02*
X48069228Y7026536D01*
X47890657Y6990822D02*
X48212085Y6990822D01*
X48212085Y6705108D01*
X48426371Y7455108D02*
X48319228Y7097965D01*
X48390657Y7240822D02*
X48533514Y6847965D01*
X48676371Y6669393D01*
X48819228Y6633679D01*
X48712085Y7240822D02*
X48604942Y6847965D01*
X48462085Y6705108D01*
X48283514Y6633679D01*
X46462085Y6104750D02*
X47104942Y6104750D01*
X46497800Y5783322D02*
X47033514Y5783322D01*
X46497800Y5997608D02*
X46497800Y5783322D01*
X46783514Y6247608D02*
X46783514Y5461893D01*
X46497800Y5997608D02*
X47033514Y5997608D01*
X47033514Y5783322D01*
X46247800Y6211893D02*
X46354942Y6069036D01*
X46176371Y5854750D02*
X46354942Y5854750D01*
X46354942Y5533322D01*
X46212085Y5390465D01*
X46783514Y5783322D02*
X46533514Y5533322D01*
X46783514Y5783322D02*
X47033514Y5533322D01*
X47104942Y5533322D01*
X46319228Y5497608D02*
X46676371Y5390465D01*
X47140657Y5390465D01*
X48176371Y6140465D02*
X48747800Y6140465D01*
X48104942Y5997608D02*
X48783514Y5997608D01*
X48212085Y5783322D02*
X48676371Y5783322D01*
X48212085Y5676179D02*
X48676371Y5676179D01*
X48104942Y5533322D02*
X48783514Y5533322D01*
X47854942Y6211893D02*
X47854942Y5390465D01*
X48212085Y5890465D02*
X48212085Y5676179D01*
X48283514Y6140465D02*
X48319228Y5997608D01*
X48462085Y6247608D02*
X48462085Y6140465D01*
X48462085Y5676179D02*
X48462085Y5390465D01*
X48212085Y5890465D02*
X48676371Y5890465D01*
X48676371Y5676179D01*
X48033514Y5926179D02*
X48104942Y5676179D01*
X47854942Y6176179D02*
X48104942Y6176179D01*
X47997800Y5961893D01*
X48604942Y6140465D02*
X48533514Y5997608D01*
X48069228Y5640465D02*
X47962085Y5640465D01*
X46176371Y4825822D02*
X46497800Y4825822D01*
X46640657Y4718679D02*
X46926371Y4718679D01*
X46497800Y4218679D02*
X47104942Y4218679D01*
X46354942Y5040108D02*
X46354942Y4182965D01*
X46783514Y5004393D02*
X47069228Y4682965D01*
X46783514Y5040108D02*
X46747800Y4897250D01*
X46497800Y4682965D01*
X46319228Y4825822D02*
X46426371Y4575822D01*
X47033514Y4611536D02*
X46854942Y4218679D01*
X46569228Y4575822D02*
X46604942Y4361536D01*
X46354942Y4861536D02*
X46212085Y4432965D01*
X46783514Y4611536D02*
X46783514Y4397250D01*
X47854942Y4825822D02*
X48176371Y4825822D01*
X48319228Y4718679D02*
X48604942Y4718679D01*
X48176371Y4218679D02*
X48783514Y4218679D01*
X48033514Y5040108D02*
X48033514Y4182965D01*
X48462085Y5004393D02*
X48747800Y4682965D01*
X48462085Y5040108D02*
X48426371Y4897250D01*
X48176371Y4682965D01*
X47997800Y4825822D02*
X48104942Y4575822D01*
X48712085Y4611536D02*
X48533514Y4218679D01*
X48247800Y4575822D02*
X48283514Y4361536D01*
X48033514Y4861536D02*
X47890657Y4432965D01*
X48462085Y4611536D02*
X48462085Y4397250D01*
X46962085Y2975465D02*
X47104942Y2975465D01*
X46462085Y3761179D02*
X46462085Y3189750D01*
X46462085Y3761179D02*
X46783514Y3761179D01*
X46783514Y3189750D01*
X46962085Y3725465D02*
X46962085Y3189750D01*
X47104942Y3796893D02*
X47104942Y2975465D01*
X46676371Y3118322D02*
X46819228Y2975465D01*
X46604942Y3118322D02*
X46426371Y2975465D01*
X46247800Y3796893D02*
X46390657Y3725465D01*
X46176371Y3546893D02*
X46354942Y3475465D01*
X46319228Y3261179D02*
X46212085Y2975465D01*
X46640657Y3654036D02*
X46640657Y3296893D01*
X46604942Y3118322D01*
X48640657Y2975465D02*
X48783514Y2975465D01*
X48140657Y3761179D02*
X48140657Y3189750D01*
X48140657Y3761179D02*
X48462085Y3761179D01*
X48462085Y3189750D01*
X48640657Y3725465D02*
X48640657Y3189750D01*
X48783514Y3796893D02*
X48783514Y2975465D01*
X48354942Y3118322D02*
X48497800Y2975465D01*
X48283514Y3118322D02*
X48104942Y2975465D01*
X47926371Y3796893D02*
X48069228Y3725465D01*
X47854942Y3546893D02*
X48033514Y3475465D01*
X47997800Y3261179D02*
X47890657Y2975465D01*
X48319228Y3654036D02*
X48319228Y3296893D01*
X48283514Y3118322D01*
D14*
X8409219Y1311229D02*
X8742552Y1311229D01*
X8885409Y787420D02*
X8409219Y787420D01*
X8409219Y1787420D01*
X8885409Y1787420D01*
X9266361Y835039D02*
X9409219Y787420D01*
X9647314Y787420D01*
X9742552Y835039D01*
X9790171Y882658D01*
X9837790Y977896D01*
X9837790Y1073134D01*
X9790171Y1168372D01*
X9742552Y1215991D01*
X9647314Y1263610D01*
X9456838Y1311229D01*
X9361600Y1358848D01*
X9313980Y1406467D01*
X9266361Y1501705D01*
X9266361Y1596943D01*
X9313980Y1692181D01*
X9361600Y1739800D01*
X9456838Y1787420D01*
X9694933Y1787420D01*
X9837790Y1739800D01*
X10266361Y787420D02*
X10266361Y1787420D01*
X10647314Y1787420D01*
X10742552Y1739800D01*
X10790171Y1692181D01*
X10837790Y1596943D01*
X10837790Y1454086D01*
X10790171Y1358848D01*
X10742552Y1311229D01*
X10647314Y1263610D01*
X10266361Y1263610D01*
X11837790Y787420D02*
X11504457Y1263610D01*
X11266361Y787420D02*
X11266361Y1787420D01*
X11647314Y1787420D01*
X11742552Y1739800D01*
X11790171Y1692181D01*
X11837790Y1596943D01*
X11837790Y1454086D01*
X11790171Y1358848D01*
X11742552Y1311229D01*
X11647314Y1263610D01*
X11266361Y1263610D01*
X12266361Y1311229D02*
X12599695Y1311229D01*
X12742552Y787420D02*
X12266361Y787420D01*
X12266361Y1787420D01*
X12742552Y1787420D01*
X13123504Y835039D02*
X13266361Y787420D01*
X13504457Y787420D01*
X13599695Y835039D01*
X13647314Y882658D01*
X13694933Y977896D01*
X13694933Y1073134D01*
X13647314Y1168372D01*
X13599695Y1215991D01*
X13504457Y1263610D01*
X13313980Y1311229D01*
X13218742Y1358848D01*
X13171123Y1406467D01*
X13123504Y1501705D01*
X13123504Y1596943D01*
X13171123Y1692181D01*
X13218742Y1739800D01*
X13313980Y1787420D01*
X13552076Y1787420D01*
X13694933Y1739800D01*
X14123504Y1311229D02*
X14456838Y1311229D01*
X14599695Y787420D02*
X14123504Y787420D01*
X14123504Y1787420D01*
X14599695Y1787420D01*
X14885409Y1787420D02*
X15456838Y1787420D01*
X15171123Y787420D02*
X15171123Y1787420D01*
D10*
X1644885Y32500896D02*
X1644885Y33300896D01*
X1835361Y33300896D01*
X1949647Y33262800D01*
X2025838Y33186610D01*
X2063933Y33110420D01*
X2102028Y32958039D01*
X2102028Y32843753D01*
X2063933Y32691372D01*
X2025838Y32615181D01*
X1949647Y32538991D01*
X1835361Y32500896D01*
X1644885Y32500896D01*
X2597266Y33300896D02*
X2749647Y33300896D01*
X2825838Y33262800D01*
X2902028Y33186610D01*
X2940123Y33034229D01*
X2940123Y32767562D01*
X2902028Y32615181D01*
X2825838Y32538991D01*
X2749647Y32500896D01*
X2597266Y32500896D01*
X2521076Y32538991D01*
X2444885Y32615181D01*
X2406790Y32767562D01*
X2406790Y33034229D01*
X2444885Y33186610D01*
X2521076Y33262800D01*
X2597266Y33300896D01*
X3206790Y33300896D02*
X3397266Y32500896D01*
X3549647Y33072324D01*
X3702028Y32500896D01*
X3892504Y33300896D01*
X4197266Y32500896D02*
X4197266Y33300896D01*
X4654409Y32500896D01*
X4654409Y33300896D01*
X5416314Y32500896D02*
X5035361Y32500896D01*
X5035361Y33300896D01*
X5835361Y33300896D02*
X5987742Y33300896D01*
X6063933Y33262800D01*
X6140123Y33186610D01*
X6178219Y33034229D01*
X6178219Y32767562D01*
X6140123Y32615181D01*
X6063933Y32538991D01*
X5987742Y32500896D01*
X5835361Y32500896D01*
X5759171Y32538991D01*
X5682980Y32615181D01*
X5644885Y32767562D01*
X5644885Y33034229D01*
X5682980Y33186610D01*
X5759171Y33262800D01*
X5835361Y33300896D01*
X6482980Y32729467D02*
X6863933Y32729467D01*
X6406790Y32500896D02*
X6673457Y33300896D01*
X6940123Y32500896D01*
X7206790Y32500896D02*
X7206790Y33300896D01*
X7397266Y33300896D01*
X7511552Y33262800D01*
X7587742Y33186610D01*
X7625838Y33110420D01*
X7663933Y32958039D01*
X7663933Y32843753D01*
X7625838Y32691372D01*
X7587742Y32615181D01*
X7511552Y32538991D01*
X7397266Y32500896D01*
X7206790Y32500896D01*
X8006790Y32805658D02*
X8616314Y32805658D01*
X65264314Y13939343D02*
X65307171Y14067915D01*
X65350028Y14110772D01*
X65435742Y14153629D01*
X65564314Y14153629D01*
X65650028Y14110772D01*
X65692885Y14067915D01*
X65735742Y13982200D01*
X65735742Y13639343D01*
X64835742Y13639343D01*
X64835742Y13939343D01*
X64878600Y14025058D01*
X64921457Y14067915D01*
X65007171Y14110772D01*
X65092885Y14110772D01*
X65178600Y14067915D01*
X65221457Y14025058D01*
X65264314Y13939343D01*
X65264314Y13639343D01*
X64835742Y14710772D02*
X64835742Y14882200D01*
X64878600Y14967915D01*
X64964314Y15053629D01*
X65135742Y15096486D01*
X65435742Y15096486D01*
X65607171Y15053629D01*
X65692885Y14967915D01*
X65735742Y14882200D01*
X65735742Y14710772D01*
X65692885Y14625058D01*
X65607171Y14539343D01*
X65435742Y14496486D01*
X65135742Y14496486D01*
X64964314Y14539343D01*
X64878600Y14625058D01*
X64835742Y14710772D01*
X64835742Y15482200D02*
X65564314Y15482200D01*
X65650028Y15525058D01*
X65692885Y15567915D01*
X65735742Y15653629D01*
X65735742Y15825058D01*
X65692885Y15910772D01*
X65650028Y15953629D01*
X65564314Y15996486D01*
X64835742Y15996486D01*
X64835742Y16296486D02*
X64835742Y16810772D01*
X65735742Y16553629D02*
X64835742Y16553629D01*
X64921457Y17067915D02*
X64878600Y17110772D01*
X64835742Y17196486D01*
X64835742Y17410772D01*
X64878600Y17496486D01*
X64921457Y17539343D01*
X65007171Y17582200D01*
X65092885Y17582200D01*
X65221457Y17539343D01*
X65735742Y17025058D01*
X65735742Y17582200D01*
X65264314Y18953629D02*
X65307171Y19082200D01*
X65350028Y19125058D01*
X65435742Y19167915D01*
X65564314Y19167915D01*
X65650028Y19125058D01*
X65692885Y19082200D01*
X65735742Y18996486D01*
X65735742Y18653629D01*
X64835742Y18653629D01*
X64835742Y18953629D01*
X64878600Y19039343D01*
X64921457Y19082200D01*
X65007171Y19125058D01*
X65092885Y19125058D01*
X65178600Y19082200D01*
X65221457Y19039343D01*
X65264314Y18953629D01*
X65264314Y18653629D01*
X64835742Y19725058D02*
X64835742Y19896486D01*
X64878600Y19982200D01*
X64964314Y20067915D01*
X65135742Y20110772D01*
X65435742Y20110772D01*
X65607171Y20067915D01*
X65692885Y19982200D01*
X65735742Y19896486D01*
X65735742Y19725058D01*
X65692885Y19639343D01*
X65607171Y19553629D01*
X65435742Y19510772D01*
X65135742Y19510772D01*
X64964314Y19553629D01*
X64878600Y19639343D01*
X64835742Y19725058D01*
X64835742Y20496486D02*
X65564314Y20496486D01*
X65650028Y20539343D01*
X65692885Y20582200D01*
X65735742Y20667915D01*
X65735742Y20839343D01*
X65692885Y20925058D01*
X65650028Y20967915D01*
X65564314Y21010772D01*
X64835742Y21010772D01*
X64835742Y21310772D02*
X64835742Y21825058D01*
X65735742Y21567915D02*
X64835742Y21567915D01*
X65735742Y22596486D02*
X65735742Y22082200D01*
X65735742Y22339343D02*
X64835742Y22339343D01*
X64964314Y22253629D01*
X65050028Y22167915D01*
X65092885Y22082200D01*
X65478600Y23625058D02*
X65478600Y24053629D01*
X65735742Y23539343D02*
X64835742Y23839343D01*
X65735742Y24139343D01*
X64835742Y24610772D02*
X64835742Y24782200D01*
X64878600Y24867915D01*
X64964314Y24953629D01*
X65135742Y24996486D01*
X65435742Y24996486D01*
X65607171Y24953629D01*
X65692885Y24867915D01*
X65735742Y24782200D01*
X65735742Y24610772D01*
X65692885Y24525058D01*
X65607171Y24439343D01*
X65435742Y24396486D01*
X65135742Y24396486D01*
X64964314Y24439343D01*
X64878600Y24525058D01*
X64835742Y24610772D01*
X64835742Y25382200D02*
X65564314Y25382200D01*
X65650028Y25425058D01*
X65692885Y25467915D01*
X65735742Y25553629D01*
X65735742Y25725058D01*
X65692885Y25810772D01*
X65650028Y25853629D01*
X65564314Y25896486D01*
X64835742Y25896486D01*
X64835742Y26196486D02*
X64835742Y26710772D01*
X65735742Y26453629D02*
X64835742Y26453629D01*
X64921457Y26967915D02*
X64878600Y27010772D01*
X64835742Y27096486D01*
X64835742Y27310772D01*
X64878600Y27396486D01*
X64921457Y27439343D01*
X65007171Y27482200D01*
X65092885Y27482200D01*
X65221457Y27439343D01*
X65735742Y26925058D01*
X65735742Y27482200D01*
X65478600Y28510772D02*
X65478600Y28939343D01*
X65735742Y28425058D02*
X64835742Y28725058D01*
X65735742Y29025058D01*
X64835742Y29496486D02*
X64835742Y29667915D01*
X64878600Y29753629D01*
X64964314Y29839343D01*
X65135742Y29882200D01*
X65435742Y29882200D01*
X65607171Y29839343D01*
X65692885Y29753629D01*
X65735742Y29667915D01*
X65735742Y29496486D01*
X65692885Y29410772D01*
X65607171Y29325058D01*
X65435742Y29282200D01*
X65135742Y29282200D01*
X64964314Y29325058D01*
X64878600Y29410772D01*
X64835742Y29496486D01*
X64835742Y30267915D02*
X65564314Y30267915D01*
X65650028Y30310772D01*
X65692885Y30353629D01*
X65735742Y30439343D01*
X65735742Y30610772D01*
X65692885Y30696486D01*
X65650028Y30739343D01*
X65564314Y30782200D01*
X64835742Y30782200D01*
X64835742Y31082200D02*
X64835742Y31596486D01*
X65735742Y31339343D02*
X64835742Y31339343D01*
X65735742Y32367915D02*
X65735742Y31853629D01*
X65735742Y32110772D02*
X64835742Y32110772D01*
X64964314Y32025058D01*
X65050028Y31939343D01*
X65092885Y31853629D01*
D13*
X16326009Y7469134D02*
X17202200Y7469134D01*
X16326009Y7240562D02*
X17202200Y7240562D01*
X16783152Y6973896D02*
X17278390Y6973896D01*
X16326009Y7735800D02*
X16326009Y7164372D01*
X16783152Y7888181D02*
X16783152Y6973896D01*
X16326009Y7735800D02*
X17202200Y7735800D01*
X17202200Y7240562D01*
X17316485Y7164372D02*
X17278390Y6973896D01*
X17849819Y7850086D02*
X18497438Y7850086D01*
X17964104Y7507229D02*
X18421247Y7507229D01*
X17964104Y7354848D02*
X18421247Y7354848D01*
X18040295Y6973896D02*
X18192676Y6973896D01*
X17964104Y7659610D02*
X17964104Y7354848D01*
X18192676Y7811991D02*
X18154580Y7659610D01*
X18192676Y7354848D02*
X18192676Y6973896D01*
X17964104Y7659610D02*
X18421247Y7659610D01*
X18421247Y7354848D01*
X18345057Y7240562D02*
X18459342Y7126277D01*
X18002200Y7240562D02*
X17926009Y7088181D01*
X17583152Y7850086D02*
X17735533Y7773896D01*
X17506961Y7583420D02*
X17697438Y7507229D01*
X17697438Y7316753D02*
X17545057Y6973896D01*
X17849819Y7850086D02*
X17849819Y7392943D01*
X17773628Y7088181D01*
X18687914Y7659610D02*
X19030771Y7659610D01*
X19145057Y7507229D02*
X19640295Y7507229D01*
X19145057Y7202467D02*
X19640295Y7202467D01*
X19145057Y7011991D02*
X19640295Y7011991D01*
X18726009Y6973896D02*
X18878390Y6973896D01*
X18878390Y7888181D02*
X18878390Y6973896D01*
X19183152Y7888181D02*
X19183152Y7545324D01*
X19145057Y7392943D02*
X19145057Y6973896D01*
X19145057Y7392943D02*
X19640295Y7392943D01*
X19640295Y6973896D01*
X19678390Y7659610D02*
X19640295Y7507229D01*
X19030771Y7431039D02*
X18687914Y7316753D01*
X19602200Y7773896D02*
X19145057Y7697705D01*
X19983152Y7773896D02*
X20783152Y7773896D01*
X19868866Y7545324D02*
X20859342Y7545324D01*
X20173628Y6973896D02*
X20364104Y6973896D01*
X20364104Y7545324D02*
X20364104Y6973896D01*
X20630771Y7354848D02*
X20745057Y7240562D01*
X20821247Y7050086D01*
X20097438Y7392943D02*
X20021247Y7240562D01*
X19868866Y7088181D01*
X21506961Y7773896D02*
X22040295Y7773896D01*
X21583152Y6973896D02*
X21811723Y6973896D01*
X21811723Y7773896D02*
X21811723Y6973896D01*
X21430771Y7659610D02*
X21354580Y7507229D01*
X21126009Y7659610D02*
X21087914Y7469134D01*
X21240295Y7888181D02*
X21240295Y7431039D01*
X21240295Y7240562D01*
X21087914Y7011991D01*
X21240295Y7278658D02*
X21430771Y7126277D01*
D12*
X2884542Y38217400D02*
X2827400Y38245972D01*
X2741685Y38245972D01*
X2655971Y38217400D01*
X2598828Y38160258D01*
X2570257Y38103115D01*
X2541685Y37988829D01*
X2541685Y37903115D01*
X2570257Y37788829D01*
X2598828Y37731686D01*
X2655971Y37674543D01*
X2741685Y37645972D01*
X2798828Y37645972D01*
X2884542Y37674543D01*
X2913114Y37703115D01*
X2913114Y37903115D01*
X2798828Y37903115D01*
X3170257Y37645972D02*
X3170257Y38245972D01*
X3513114Y37645972D01*
X3513114Y38245972D01*
X3798828Y37645972D02*
X3798828Y38245972D01*
X3941685Y38245972D01*
X4027400Y38217400D01*
X4084542Y38160258D01*
X4113114Y38103115D01*
X4141685Y37988829D01*
X4141685Y37903115D01*
X4113114Y37788829D01*
X4084542Y37731686D01*
X4027400Y37674543D01*
X3941685Y37645972D01*
X3798828Y37645972D01*
X5055971Y37960258D02*
X4855971Y37960258D01*
X4855971Y37645972D02*
X4855971Y38245972D01*
X5141685Y38245972D01*
X5655971Y37645972D02*
X5370257Y37645972D01*
X5370257Y38245972D01*
X5827400Y37817400D02*
X6113114Y37817400D01*
X5770257Y37645972D02*
X5970257Y38245972D01*
X6170257Y37645972D01*
X6341685Y37674543D02*
X6427400Y37645972D01*
X6570257Y37645972D01*
X6627400Y37674543D01*
X6655971Y37703115D01*
X6684542Y37760258D01*
X6684542Y37817400D01*
X6655971Y37874543D01*
X6627400Y37903115D01*
X6570257Y37931686D01*
X6455971Y37960258D01*
X6398828Y37988829D01*
X6370257Y38017400D01*
X6341685Y38074543D01*
X6341685Y38131686D01*
X6370257Y38188829D01*
X6398828Y38217400D01*
X6455971Y38245972D01*
X6598828Y38245972D01*
X6684542Y38217400D01*
X6941685Y37645972D02*
X6941685Y38245972D01*
X6941685Y37960258D02*
X7284542Y37960258D01*
X7284542Y37645972D02*
X7284542Y38245972D01*
D15*
X2152676Y10017991D02*
X2176485Y10041800D01*
X2224104Y10065610D01*
X2343152Y10065610D01*
X2390771Y10041800D01*
X2414580Y10017991D01*
X2438390Y9970372D01*
X2438390Y9922753D01*
X2414580Y9851324D01*
X2128866Y9565610D01*
X2438390Y9565610D01*
X2747914Y10065610D02*
X2795533Y10065610D01*
X2843152Y10041800D01*
X2866961Y10017991D01*
X2890771Y9970372D01*
X2914580Y9875134D01*
X2914580Y9756086D01*
X2890771Y9660848D01*
X2866961Y9613229D01*
X2843152Y9589420D01*
X2795533Y9565610D01*
X2747914Y9565610D01*
X2700295Y9589420D01*
X2676485Y9613229D01*
X2652676Y9660848D01*
X2628866Y9756086D01*
X2628866Y9875134D01*
X2652676Y9970372D01*
X2676485Y10017991D01*
X2700295Y10041800D01*
X2747914Y10065610D01*
X3105057Y10017991D02*
X3128866Y10041800D01*
X3176485Y10065610D01*
X3295533Y10065610D01*
X3343152Y10041800D01*
X3366961Y10017991D01*
X3390771Y9970372D01*
X3390771Y9922753D01*
X3366961Y9851324D01*
X3081247Y9565610D01*
X3390771Y9565610D01*
X3557438Y10065610D02*
X3866961Y10065610D01*
X3700295Y9875134D01*
X3771723Y9875134D01*
X3819342Y9851324D01*
X3843152Y9827515D01*
X3866961Y9779896D01*
X3866961Y9660848D01*
X3843152Y9613229D01*
X3819342Y9589420D01*
X3771723Y9565610D01*
X3628866Y9565610D01*
X3581247Y9589420D01*
X3557438Y9613229D01*
X4081247Y9613229D02*
X4105057Y9589420D01*
X4081247Y9565610D01*
X4057438Y9589420D01*
X4081247Y9613229D01*
X4081247Y9565610D01*
X4271723Y10065610D02*
X4581247Y10065610D01*
X4414580Y9875134D01*
X4486009Y9875134D01*
X4533628Y9851324D01*
X4557438Y9827515D01*
X4581247Y9779896D01*
X4581247Y9660848D01*
X4557438Y9613229D01*
X4533628Y9589420D01*
X4486009Y9565610D01*
X4343152Y9565610D01*
X4295533Y9589420D01*
X4271723Y9613229D01*
X4795533Y9613229D02*
X4819342Y9589420D01*
X4795533Y9565610D01*
X4771723Y9589420D01*
X4795533Y9613229D01*
X4795533Y9565610D01*
X5295533Y9565610D02*
X5009819Y9565610D01*
X5152676Y9565610D02*
X5152676Y10065610D01*
X5105057Y9994181D01*
X5057438Y9946562D01*
X5009819Y9922753D01*
X5486009Y10017991D02*
X5509819Y10041800D01*
X5557438Y10065610D01*
X5676485Y10065610D01*
X5724104Y10041800D01*
X5747914Y10017991D01*
X5771723Y9970372D01*
X5771723Y9922753D01*
X5747914Y9851324D01*
X5462200Y9565610D01*
X5771723Y9565610D01*
X1605057Y8760610D02*
X1605057Y9260610D01*
X1724104Y9260610D01*
X1795533Y9236800D01*
X1843152Y9189181D01*
X1866961Y9141562D01*
X1890771Y9046324D01*
X1890771Y8974896D01*
X1866961Y8879658D01*
X1843152Y8832039D01*
X1795533Y8784420D01*
X1724104Y8760610D01*
X1605057Y8760610D01*
X2105057Y9022515D02*
X2271723Y9022515D01*
X2343152Y8760610D02*
X2105057Y8760610D01*
X2105057Y9260610D01*
X2343152Y9260610D01*
X2533628Y8784420D02*
X2605057Y8760610D01*
X2724104Y8760610D01*
X2771723Y8784420D01*
X2795533Y8808229D01*
X2819342Y8855848D01*
X2819342Y8903467D01*
X2795533Y8951086D01*
X2771723Y8974896D01*
X2724104Y8998705D01*
X2628866Y9022515D01*
X2581247Y9046324D01*
X2557438Y9070134D01*
X2533628Y9117753D01*
X2533628Y9165372D01*
X2557438Y9212991D01*
X2581247Y9236800D01*
X2628866Y9260610D01*
X2747914Y9260610D01*
X2819342Y9236800D01*
X3033628Y8760610D02*
X3033628Y9260610D01*
X3533628Y9236800D02*
X3486009Y9260610D01*
X3414580Y9260610D01*
X3343152Y9236800D01*
X3295533Y9189181D01*
X3271723Y9141562D01*
X3247914Y9046324D01*
X3247914Y8974896D01*
X3271723Y8879658D01*
X3295533Y8832039D01*
X3343152Y8784420D01*
X3414580Y8760610D01*
X3462200Y8760610D01*
X3533628Y8784420D01*
X3557438Y8808229D01*
X3557438Y8974896D01*
X3462200Y8974896D01*
X3771723Y8760610D02*
X3771723Y9260610D01*
X4057438Y8760610D01*
X4057438Y9260610D01*
X4295533Y9022515D02*
X4462200Y9022515D01*
X4533628Y8760610D02*
X4295533Y8760610D01*
X4295533Y9260610D01*
X4533628Y9260610D01*
X4747914Y8760610D02*
X4747914Y9260610D01*
X4866961Y9260610D01*
X4938390Y9236800D01*
X4986009Y9189181D01*
X5009819Y9141562D01*
X5033628Y9046324D01*
X5033628Y8974896D01*
X5009819Y8879658D01*
X4986009Y8832039D01*
X4938390Y8784420D01*
X4866961Y8760610D01*
X4747914Y8760610D01*
X5795533Y9022515D02*
X5866961Y8998705D01*
X5890771Y8974896D01*
X5914580Y8927277D01*
X5914580Y8855848D01*
X5890771Y8808229D01*
X5866961Y8784420D01*
X5819342Y8760610D01*
X5628866Y8760610D01*
X5628866Y9260610D01*
X5795533Y9260610D01*
X5843152Y9236800D01*
X5866961Y9212991D01*
X5890771Y9165372D01*
X5890771Y9117753D01*
X5866961Y9070134D01*
X5843152Y9046324D01*
X5795533Y9022515D01*
X5628866Y9022515D01*
X6224104Y8998705D02*
X6224104Y8760610D01*
X6057438Y9260610D02*
X6224104Y8998705D01*
X6390771Y9260610D01*
X2795533Y7955610D02*
X2557438Y7955610D01*
X2557438Y8455610D01*
X2962200Y7955610D02*
X2962200Y8288943D01*
X2962200Y8455610D02*
X2938390Y8431800D01*
X2962200Y8407991D01*
X2986009Y8431800D01*
X2962200Y8455610D01*
X2962200Y8407991D01*
X3343152Y8455610D02*
X3343152Y8098467D01*
X3319342Y8027039D01*
X3271723Y7979420D01*
X3200295Y7955610D01*
X3152676Y7955610D01*
X3795533Y8288943D02*
X3795533Y7955610D01*
X3581247Y8288943D02*
X3581247Y8027039D01*
X3605057Y7979420D01*
X3652676Y7955610D01*
X3724104Y7955610D01*
X3771723Y7979420D01*
X3795533Y8003229D01*
X4033628Y8288943D02*
X4033628Y7955610D01*
X4033628Y8241324D02*
X4057438Y8265134D01*
X4105057Y8288943D01*
X4176485Y8288943D01*
X4224104Y8265134D01*
X4247914Y8217515D01*
X4247914Y7955610D01*
X4581247Y8193705D02*
X4581247Y7955610D01*
X4414580Y8455610D02*
X4581247Y8193705D01*
X4747914Y8455610D01*
X4914580Y7955610D02*
X4914580Y8288943D01*
X4914580Y8455610D02*
X4890771Y8431800D01*
X4914580Y8407991D01*
X4938390Y8431800D01*
X4914580Y8455610D01*
X4914580Y8407991D01*
X5152676Y8288943D02*
X5152676Y7955610D01*
X5152676Y8241324D02*
X5176485Y8265134D01*
X5224104Y8288943D01*
X5295533Y8288943D01*
X5343152Y8265134D01*
X5366961Y8217515D01*
X5366961Y7955610D01*
D12*
X16374857Y34690572D02*
X16374857Y35147715D01*
X16603428Y34919143D02*
X16146285Y34919143D01*
X16003428Y35376286D02*
X16003428Y35747715D01*
X16232000Y35547715D01*
X16232000Y35633429D01*
X16260571Y35690572D01*
X16289142Y35719143D01*
X16346285Y35747715D01*
X16489142Y35747715D01*
X16546285Y35719143D01*
X16574857Y35690572D01*
X16603428Y35633429D01*
X16603428Y35462000D01*
X16574857Y35404858D01*
X16546285Y35376286D01*
X16546285Y36004858D02*
X16574857Y36033429D01*
X16603428Y36004858D01*
X16574857Y35976286D01*
X16546285Y36004858D01*
X16603428Y36004858D01*
X16003428Y36233429D02*
X16003428Y36604858D01*
X16232000Y36404858D01*
X16232000Y36490572D01*
X16260571Y36547715D01*
X16289142Y36576286D01*
X16346285Y36604858D01*
X16489142Y36604858D01*
X16546285Y36576286D01*
X16574857Y36547715D01*
X16603428Y36490572D01*
X16603428Y36319143D01*
X16574857Y36262000D01*
X16546285Y36233429D01*
X16003428Y36776286D02*
X16603428Y36976286D01*
X16003428Y37176286D01*
X16289142Y37833429D02*
X16289142Y38033429D01*
X16603428Y38119143D02*
X16603428Y37833429D01*
X16003428Y37833429D01*
X16003428Y38119143D01*
X16003428Y38319143D02*
X16603428Y38719143D01*
X16003428Y38719143D02*
X16603428Y38319143D01*
X16603428Y38947715D02*
X16003428Y38947715D01*
X16003428Y39090572D01*
X16032000Y39176286D01*
X16089142Y39233429D01*
X16146285Y39262000D01*
X16260571Y39290572D01*
X16346285Y39290572D01*
X16460571Y39262000D01*
X16517714Y39233429D01*
X16574857Y39176286D01*
X16603428Y39090572D01*
X16603428Y38947715D01*
X16003428Y39919143D02*
X16003428Y40262000D01*
X16603428Y40090572D02*
X16003428Y40090572D01*
X16003428Y40404858D02*
X16603428Y40804858D01*
X16003428Y40804858D02*
X16603428Y40404858D01*
X16603428Y41033429D02*
X16003428Y41033429D01*
X16003428Y41176286D01*
X16032000Y41262000D01*
X16089142Y41319143D01*
X16146285Y41347715D01*
X16260571Y41376286D01*
X16346285Y41376286D01*
X16460571Y41347715D01*
X16517714Y41319143D01*
X16574857Y41262000D01*
X16603428Y41176286D01*
X16603428Y41033429D01*
X16032000Y42404858D02*
X16003428Y42347715D01*
X16003428Y42262000D01*
X16032000Y42176286D01*
X16089142Y42119143D01*
X16146285Y42090572D01*
X16260571Y42062000D01*
X16346285Y42062000D01*
X16460571Y42090572D01*
X16517714Y42119143D01*
X16574857Y42176286D01*
X16603428Y42262000D01*
X16603428Y42319143D01*
X16574857Y42404858D01*
X16546285Y42433429D01*
X16346285Y42433429D01*
X16346285Y42319143D01*
X16603428Y42690572D02*
X16003428Y42690572D01*
X16603428Y43033429D01*
X16003428Y43033429D01*
X16603428Y43319143D02*
X16003428Y43319143D01*
X16003428Y43462000D01*
X16032000Y43547715D01*
X16089142Y43604858D01*
X16146285Y43633429D01*
X16260571Y43662000D01*
X16346285Y43662000D01*
X16460571Y43633429D01*
X16517714Y43604858D01*
X16574857Y43547715D01*
X16603428Y43462000D01*
X16603428Y43319143D01*
D14*
X22963419Y711220D02*
X22963419Y1711220D01*
X23201514Y1711220D01*
X23344371Y1663600D01*
X23439609Y1568362D01*
X23487228Y1473124D01*
X23534847Y1282648D01*
X23534847Y1139791D01*
X23487228Y949315D01*
X23439609Y854077D01*
X23344371Y758839D01*
X23201514Y711220D01*
X22963419Y711220D01*
X24534847Y711220D02*
X24201514Y1187410D01*
X23963419Y711220D02*
X23963419Y1711220D01*
X24344371Y1711220D01*
X24439609Y1663600D01*
X24487228Y1615981D01*
X24534847Y1520743D01*
X24534847Y1377886D01*
X24487228Y1282648D01*
X24439609Y1235029D01*
X24344371Y1187410D01*
X23963419Y1187410D01*
X24820561Y1711220D02*
X25153895Y711220D01*
X25487228Y1711220D01*
X26391990Y711220D02*
X26058657Y1187410D01*
X25820561Y711220D02*
X25820561Y1711220D01*
X26201514Y1711220D01*
X26296752Y1663600D01*
X26344371Y1615981D01*
X26391990Y1520743D01*
X26391990Y1377886D01*
X26344371Y1282648D01*
X26296752Y1235029D01*
X26201514Y1187410D01*
X25820561Y1187410D01*
X26820561Y1235029D02*
X27153895Y1235029D01*
X27296752Y711220D02*
X26820561Y711220D01*
X26820561Y1711220D01*
X27296752Y1711220D01*
X27677704Y758839D02*
X27820561Y711220D01*
X28058657Y711220D01*
X28153895Y758839D01*
X28201514Y806458D01*
X28249133Y901696D01*
X28249133Y996934D01*
X28201514Y1092172D01*
X28153895Y1139791D01*
X28058657Y1187410D01*
X27868180Y1235029D01*
X27772942Y1282648D01*
X27725323Y1330267D01*
X27677704Y1425505D01*
X27677704Y1520743D01*
X27725323Y1615981D01*
X27772942Y1663600D01*
X27868180Y1711220D01*
X28106276Y1711220D01*
X28249133Y1663600D01*
X28677704Y1235029D02*
X29011038Y1235029D01*
X29153895Y711220D02*
X28677704Y711220D01*
X28677704Y1711220D01*
X29153895Y1711220D01*
X29439609Y1711220D02*
X30011038Y1711220D01*
X29725323Y711220D02*
X29725323Y1711220D01*
D13*
%TO.C,U2*%
X12588095Y23897620D02*
X12588095Y23088096D01*
X12635714Y22992858D01*
X12683333Y22945239D01*
X12778571Y22897620D01*
X12969047Y22897620D01*
X13064285Y22945239D01*
X13111904Y22992858D01*
X13159523Y23088096D01*
X13159523Y23897620D01*
X13588095Y23802381D02*
X13635714Y23850000D01*
X13730952Y23897620D01*
X13969047Y23897620D01*
X14064285Y23850000D01*
X14111904Y23802381D01*
X14159523Y23707143D01*
X14159523Y23611905D01*
X14111904Y23469048D01*
X13540476Y22897620D01*
X14159523Y22897620D01*
%TO.C,R6*%
X51674533Y10922020D02*
X51341200Y11398210D01*
X51103104Y10922020D02*
X51103104Y11922020D01*
X51484057Y11922020D01*
X51579295Y11874400D01*
X51626914Y11826781D01*
X51674533Y11731543D01*
X51674533Y11588686D01*
X51626914Y11493448D01*
X51579295Y11445829D01*
X51484057Y11398210D01*
X51103104Y11398210D01*
X52531676Y11922020D02*
X52341200Y11922020D01*
X52245961Y11874400D01*
X52198342Y11826781D01*
X52103104Y11683924D01*
X52055485Y11493448D01*
X52055485Y11112496D01*
X52103104Y11017258D01*
X52150723Y10969639D01*
X52245961Y10922020D01*
X52436438Y10922020D01*
X52531676Y10969639D01*
X52579295Y11017258D01*
X52626914Y11112496D01*
X52626914Y11350591D01*
X52579295Y11445829D01*
X52531676Y11493448D01*
X52436438Y11541067D01*
X52245961Y11541067D01*
X52150723Y11493448D01*
X52103104Y11445829D01*
X52055485Y11350591D01*
D16*
%TO.C,R16*%
X35060514Y11079943D02*
X34917657Y10979943D01*
X35060514Y10908515D02*
X34760514Y10908515D01*
X34760514Y11022800D01*
X34774800Y11051372D01*
X34789085Y11065658D01*
X34817657Y11079943D01*
X34860514Y11079943D01*
X34889085Y11065658D01*
X34903371Y11051372D01*
X34917657Y11022800D01*
X34917657Y10908515D01*
X35060514Y11365658D02*
X35060514Y11194229D01*
X35060514Y11279943D02*
X34760514Y11279943D01*
X34803371Y11251372D01*
X34831942Y11222800D01*
X34846228Y11194229D01*
X34760514Y11622800D02*
X34760514Y11565658D01*
X34774800Y11537086D01*
X34789085Y11522800D01*
X34831942Y11494229D01*
X34889085Y11479943D01*
X35003371Y11479943D01*
X35031942Y11494229D01*
X35046228Y11508515D01*
X35060514Y11537086D01*
X35060514Y11594229D01*
X35046228Y11622800D01*
X35031942Y11637086D01*
X35003371Y11651372D01*
X34931942Y11651372D01*
X34903371Y11637086D01*
X34889085Y11622800D01*
X34874800Y11594229D01*
X34874800Y11537086D01*
X34889085Y11508515D01*
X34903371Y11494229D01*
X34931942Y11479943D01*
%TO.C,R9*%
X17558014Y33168400D02*
X17415157Y33068400D01*
X17558014Y32996972D02*
X17258014Y32996972D01*
X17258014Y33111258D01*
X17272300Y33139829D01*
X17286585Y33154115D01*
X17315157Y33168400D01*
X17358014Y33168400D01*
X17386585Y33154115D01*
X17400871Y33139829D01*
X17415157Y33111258D01*
X17415157Y32996972D01*
X17558014Y33311258D02*
X17558014Y33368400D01*
X17543728Y33396972D01*
X17529442Y33411258D01*
X17486585Y33439829D01*
X17429442Y33454115D01*
X17315157Y33454115D01*
X17286585Y33439829D01*
X17272300Y33425543D01*
X17258014Y33396972D01*
X17258014Y33339829D01*
X17272300Y33311258D01*
X17286585Y33296972D01*
X17315157Y33282686D01*
X17386585Y33282686D01*
X17415157Y33296972D01*
X17429442Y33311258D01*
X17443728Y33339829D01*
X17443728Y33396972D01*
X17429442Y33425543D01*
X17415157Y33439829D01*
X17386585Y33454115D01*
D17*
%TO.C,U8*%
X23320950Y10802136D02*
X23320950Y10482483D01*
X23339753Y10444877D01*
X23358556Y10426074D01*
X23396162Y10407271D01*
X23471375Y10407271D01*
X23508981Y10426074D01*
X23527784Y10444877D01*
X23546587Y10482483D01*
X23546587Y10802136D01*
X23791027Y10632908D02*
X23753421Y10651711D01*
X23734618Y10670514D01*
X23715815Y10708121D01*
X23715815Y10726924D01*
X23734618Y10764530D01*
X23753421Y10783333D01*
X23791027Y10802136D01*
X23866240Y10802136D01*
X23903846Y10783333D01*
X23922649Y10764530D01*
X23941452Y10726924D01*
X23941452Y10708121D01*
X23922649Y10670514D01*
X23903846Y10651711D01*
X23866240Y10632908D01*
X23791027Y10632908D01*
X23753421Y10614105D01*
X23734618Y10595302D01*
X23715815Y10557696D01*
X23715815Y10482483D01*
X23734618Y10444877D01*
X23753421Y10426074D01*
X23791027Y10407271D01*
X23866240Y10407271D01*
X23903846Y10426074D01*
X23922649Y10444877D01*
X23941452Y10482483D01*
X23941452Y10557696D01*
X23922649Y10595302D01*
X23903846Y10614105D01*
X23866240Y10632908D01*
D16*
%TO.C,R13*%
X32242742Y12053386D02*
X32142742Y12196243D01*
X32071314Y12053386D02*
X32071314Y12353386D01*
X32185600Y12353386D01*
X32214171Y12339100D01*
X32228457Y12324815D01*
X32242742Y12296243D01*
X32242742Y12253386D01*
X32228457Y12224815D01*
X32214171Y12210529D01*
X32185600Y12196243D01*
X32071314Y12196243D01*
X32528457Y12053386D02*
X32357028Y12053386D01*
X32442742Y12053386D02*
X32442742Y12353386D01*
X32414171Y12310529D01*
X32385600Y12281958D01*
X32357028Y12267672D01*
X32628457Y12353386D02*
X32814171Y12353386D01*
X32714171Y12239100D01*
X32757028Y12239100D01*
X32785600Y12224815D01*
X32799885Y12210529D01*
X32814171Y12181958D01*
X32814171Y12110529D01*
X32799885Y12081958D01*
X32785600Y12067672D01*
X32757028Y12053386D01*
X32671314Y12053386D01*
X32642742Y12067672D01*
X32628457Y12081958D01*
%TO.C,R15*%
X35060514Y12849543D02*
X34917657Y12749543D01*
X35060514Y12678115D02*
X34760514Y12678115D01*
X34760514Y12792400D01*
X34774800Y12820972D01*
X34789085Y12835258D01*
X34817657Y12849543D01*
X34860514Y12849543D01*
X34889085Y12835258D01*
X34903371Y12820972D01*
X34917657Y12792400D01*
X34917657Y12678115D01*
X35060514Y13135258D02*
X35060514Y12963829D01*
X35060514Y13049543D02*
X34760514Y13049543D01*
X34803371Y13020972D01*
X34831942Y12992400D01*
X34846228Y12963829D01*
X34760514Y13406686D02*
X34760514Y13263829D01*
X34903371Y13249543D01*
X34889085Y13263829D01*
X34874800Y13292400D01*
X34874800Y13363829D01*
X34889085Y13392400D01*
X34903371Y13406686D01*
X34931942Y13420972D01*
X35003371Y13420972D01*
X35031942Y13406686D01*
X35046228Y13392400D01*
X35060514Y13363829D01*
X35060514Y13292400D01*
X35046228Y13263829D01*
X35031942Y13249543D01*
D13*
%TO.C,U7*%
X58853095Y14084620D02*
X58853095Y13275096D01*
X58900714Y13179858D01*
X58948333Y13132239D01*
X59043571Y13084620D01*
X59234047Y13084620D01*
X59329285Y13132239D01*
X59376904Y13179858D01*
X59424523Y13275096D01*
X59424523Y14084620D01*
X59805476Y14084620D02*
X60472142Y14084620D01*
X60043571Y13084620D01*
D16*
%TO.C,C32*%
X29033942Y12043258D02*
X29019657Y12028972D01*
X28976800Y12014686D01*
X28948228Y12014686D01*
X28905371Y12028972D01*
X28876800Y12057543D01*
X28862514Y12086115D01*
X28848228Y12143258D01*
X28848228Y12186115D01*
X28862514Y12243258D01*
X28876800Y12271829D01*
X28905371Y12300400D01*
X28948228Y12314686D01*
X28976800Y12314686D01*
X29019657Y12300400D01*
X29033942Y12286115D01*
X29133942Y12314686D02*
X29319657Y12314686D01*
X29219657Y12200400D01*
X29262514Y12200400D01*
X29291085Y12186115D01*
X29305371Y12171829D01*
X29319657Y12143258D01*
X29319657Y12071829D01*
X29305371Y12043258D01*
X29291085Y12028972D01*
X29262514Y12014686D01*
X29176800Y12014686D01*
X29148228Y12028972D01*
X29133942Y12043258D01*
X29433942Y12286115D02*
X29448228Y12300400D01*
X29476800Y12314686D01*
X29548228Y12314686D01*
X29576800Y12300400D01*
X29591085Y12286115D01*
X29605371Y12257543D01*
X29605371Y12228972D01*
X29591085Y12186115D01*
X29419657Y12014686D01*
X29605371Y12014686D01*
%TO.C,U1*%
X51710714Y22696429D02*
X51953571Y22696429D01*
X51982142Y22710715D01*
X51996428Y22725000D01*
X52010714Y22753572D01*
X52010714Y22810715D01*
X51996428Y22839286D01*
X51982142Y22853572D01*
X51953571Y22867858D01*
X51710714Y22867858D01*
X52010714Y23167858D02*
X52010714Y22996429D01*
X52010714Y23082143D02*
X51710714Y23082143D01*
X51753571Y23053572D01*
X51782142Y23025000D01*
X51796428Y22996429D01*
D13*
%TO.C,C9*%
X37833333Y5142858D02*
X37785714Y5095239D01*
X37642857Y5047620D01*
X37547619Y5047620D01*
X37404761Y5095239D01*
X37309523Y5190477D01*
X37261904Y5285715D01*
X37214285Y5476191D01*
X37214285Y5619048D01*
X37261904Y5809524D01*
X37309523Y5904762D01*
X37404761Y6000000D01*
X37547619Y6047620D01*
X37642857Y6047620D01*
X37785714Y6000000D01*
X37833333Y5952381D01*
X38309523Y5047620D02*
X38500000Y5047620D01*
X38595238Y5095239D01*
X38642857Y5142858D01*
X38738095Y5285715D01*
X38785714Y5476191D01*
X38785714Y5857143D01*
X38738095Y5952381D01*
X38690476Y6000000D01*
X38595238Y6047620D01*
X38404761Y6047620D01*
X38309523Y6000000D01*
X38261904Y5952381D01*
X38214285Y5857143D01*
X38214285Y5619048D01*
X38261904Y5523810D01*
X38309523Y5476191D01*
X38404761Y5428572D01*
X38595238Y5428572D01*
X38690476Y5476191D01*
X38738095Y5523810D01*
X38785714Y5619048D01*
%TO.C,R1*%
X51826933Y34594820D02*
X51493600Y35071010D01*
X51255504Y34594820D02*
X51255504Y35594820D01*
X51636457Y35594820D01*
X51731695Y35547200D01*
X51779314Y35499581D01*
X51826933Y35404343D01*
X51826933Y35261486D01*
X51779314Y35166248D01*
X51731695Y35118629D01*
X51636457Y35071010D01*
X51255504Y35071010D01*
X52779314Y34594820D02*
X52207885Y34594820D01*
X52493600Y34594820D02*
X52493600Y35594820D01*
X52398361Y35451962D01*
X52303123Y35356724D01*
X52207885Y35309105D01*
D16*
%TO.C,C36*%
X37114742Y20427143D02*
X37129028Y20412858D01*
X37143314Y20370000D01*
X37143314Y20341429D01*
X37129028Y20298572D01*
X37100457Y20270000D01*
X37071885Y20255715D01*
X37014742Y20241429D01*
X36971885Y20241429D01*
X36914742Y20255715D01*
X36886171Y20270000D01*
X36857600Y20298572D01*
X36843314Y20341429D01*
X36843314Y20370000D01*
X36857600Y20412858D01*
X36871885Y20427143D01*
X36843314Y20527143D02*
X36843314Y20712858D01*
X36957600Y20612858D01*
X36957600Y20655715D01*
X36971885Y20684286D01*
X36986171Y20698572D01*
X37014742Y20712858D01*
X37086171Y20712858D01*
X37114742Y20698572D01*
X37129028Y20684286D01*
X37143314Y20655715D01*
X37143314Y20570000D01*
X37129028Y20541429D01*
X37114742Y20527143D01*
X36843314Y20970000D02*
X36843314Y20912858D01*
X36857600Y20884286D01*
X36871885Y20870000D01*
X36914742Y20841429D01*
X36971885Y20827143D01*
X37086171Y20827143D01*
X37114742Y20841429D01*
X37129028Y20855715D01*
X37143314Y20884286D01*
X37143314Y20941429D01*
X37129028Y20970000D01*
X37114742Y20984286D01*
X37086171Y20998572D01*
X37014742Y20998572D01*
X36986171Y20984286D01*
X36971885Y20970000D01*
X36957600Y20941429D01*
X36957600Y20884286D01*
X36971885Y20855715D01*
X36986171Y20841429D01*
X37014742Y20827143D01*
%TO.C,C3*%
X52380142Y16988600D02*
X52394428Y16974315D01*
X52408714Y16931458D01*
X52408714Y16902886D01*
X52394428Y16860029D01*
X52365857Y16831458D01*
X52337285Y16817172D01*
X52280142Y16802886D01*
X52237285Y16802886D01*
X52180142Y16817172D01*
X52151571Y16831458D01*
X52123000Y16860029D01*
X52108714Y16902886D01*
X52108714Y16931458D01*
X52123000Y16974315D01*
X52137285Y16988600D01*
X52108714Y17088600D02*
X52108714Y17274315D01*
X52223000Y17174315D01*
X52223000Y17217172D01*
X52237285Y17245743D01*
X52251571Y17260029D01*
X52280142Y17274315D01*
X52351571Y17274315D01*
X52380142Y17260029D01*
X52394428Y17245743D01*
X52408714Y17217172D01*
X52408714Y17131458D01*
X52394428Y17102886D01*
X52380142Y17088600D01*
D13*
%TO.C,J5*%
X24990266Y40370020D02*
X24990266Y39655734D01*
X24942647Y39512877D01*
X24847409Y39417639D01*
X24704552Y39370020D01*
X24609314Y39370020D01*
X25942647Y40370020D02*
X25466457Y40370020D01*
X25418838Y39893829D01*
X25466457Y39941448D01*
X25561695Y39989067D01*
X25799790Y39989067D01*
X25895028Y39941448D01*
X25942647Y39893829D01*
X25990266Y39798591D01*
X25990266Y39560496D01*
X25942647Y39465258D01*
X25895028Y39417639D01*
X25799790Y39370020D01*
X25561695Y39370020D01*
X25466457Y39417639D01*
X25418838Y39465258D01*
D16*
%TO.C,C40*%
X20634942Y10581458D02*
X20620657Y10567172D01*
X20577800Y10552886D01*
X20549228Y10552886D01*
X20506371Y10567172D01*
X20477800Y10595743D01*
X20463514Y10624315D01*
X20449228Y10681458D01*
X20449228Y10724315D01*
X20463514Y10781458D01*
X20477800Y10810029D01*
X20506371Y10838600D01*
X20549228Y10852886D01*
X20577800Y10852886D01*
X20620657Y10838600D01*
X20634942Y10824315D01*
X20892085Y10752886D02*
X20892085Y10552886D01*
X20820657Y10867172D02*
X20749228Y10652886D01*
X20934942Y10652886D01*
X21106371Y10852886D02*
X21134942Y10852886D01*
X21163514Y10838600D01*
X21177800Y10824315D01*
X21192085Y10795743D01*
X21206371Y10738600D01*
X21206371Y10667172D01*
X21192085Y10610029D01*
X21177800Y10581458D01*
X21163514Y10567172D01*
X21134942Y10552886D01*
X21106371Y10552886D01*
X21077800Y10567172D01*
X21063514Y10581458D01*
X21049228Y10610029D01*
X21034942Y10667172D01*
X21034942Y10738600D01*
X21049228Y10795743D01*
X21063514Y10824315D01*
X21077800Y10838600D01*
X21106371Y10852886D01*
%TO.C,C7*%
X44882400Y32906958D02*
X44868114Y32892672D01*
X44825257Y32878386D01*
X44796685Y32878386D01*
X44753828Y32892672D01*
X44725257Y32921243D01*
X44710971Y32949815D01*
X44696685Y33006958D01*
X44696685Y33049815D01*
X44710971Y33106958D01*
X44725257Y33135529D01*
X44753828Y33164100D01*
X44796685Y33178386D01*
X44825257Y33178386D01*
X44868114Y33164100D01*
X44882400Y33149815D01*
X44982400Y33178386D02*
X45182400Y33178386D01*
X45053828Y32878386D01*
D12*
%TO.C,D2*%
X46738952Y9596962D02*
X46338952Y9596962D01*
X46338952Y9692200D01*
X46358000Y9749343D01*
X46396095Y9787439D01*
X46434190Y9806486D01*
X46510380Y9825534D01*
X46567523Y9825534D01*
X46643714Y9806486D01*
X46681809Y9787439D01*
X46719904Y9749343D01*
X46738952Y9692200D01*
X46738952Y9596962D01*
X46377047Y9977915D02*
X46358000Y9996962D01*
X46338952Y10035058D01*
X46338952Y10130296D01*
X46358000Y10168391D01*
X46377047Y10187439D01*
X46415142Y10206486D01*
X46453238Y10206486D01*
X46510380Y10187439D01*
X46738952Y9958867D01*
X46738952Y10206486D01*
D16*
%TO.C,C5*%
X46254000Y32552458D02*
X46239714Y32538172D01*
X46196857Y32523886D01*
X46168285Y32523886D01*
X46125428Y32538172D01*
X46096857Y32566743D01*
X46082571Y32595315D01*
X46068285Y32652458D01*
X46068285Y32695315D01*
X46082571Y32752458D01*
X46096857Y32781029D01*
X46125428Y32809600D01*
X46168285Y32823886D01*
X46196857Y32823886D01*
X46239714Y32809600D01*
X46254000Y32795315D01*
X46525428Y32823886D02*
X46382571Y32823886D01*
X46368285Y32681029D01*
X46382571Y32695315D01*
X46411142Y32709600D01*
X46482571Y32709600D01*
X46511142Y32695315D01*
X46525428Y32681029D01*
X46539714Y32652458D01*
X46539714Y32581029D01*
X46525428Y32552458D01*
X46511142Y32538172D01*
X46482571Y32523886D01*
X46411142Y32523886D01*
X46382571Y32538172D01*
X46368285Y32552458D01*
%TO.C,C34*%
X37729142Y18023658D02*
X37714857Y18009372D01*
X37672000Y17995086D01*
X37643428Y17995086D01*
X37600571Y18009372D01*
X37572000Y18037943D01*
X37557714Y18066515D01*
X37543428Y18123658D01*
X37543428Y18166515D01*
X37557714Y18223658D01*
X37572000Y18252229D01*
X37600571Y18280800D01*
X37643428Y18295086D01*
X37672000Y18295086D01*
X37714857Y18280800D01*
X37729142Y18266515D01*
X37829142Y18295086D02*
X38014857Y18295086D01*
X37914857Y18180800D01*
X37957714Y18180800D01*
X37986285Y18166515D01*
X38000571Y18152229D01*
X38014857Y18123658D01*
X38014857Y18052229D01*
X38000571Y18023658D01*
X37986285Y18009372D01*
X37957714Y17995086D01*
X37872000Y17995086D01*
X37843428Y18009372D01*
X37829142Y18023658D01*
X38272000Y18195086D02*
X38272000Y17995086D01*
X38200571Y18309372D02*
X38129142Y18095086D01*
X38314857Y18095086D01*
%TO.C,R14*%
X33587314Y20427143D02*
X33444457Y20327143D01*
X33587314Y20255715D02*
X33287314Y20255715D01*
X33287314Y20370000D01*
X33301600Y20398572D01*
X33315885Y20412858D01*
X33344457Y20427143D01*
X33387314Y20427143D01*
X33415885Y20412858D01*
X33430171Y20398572D01*
X33444457Y20370000D01*
X33444457Y20255715D01*
X33587314Y20712858D02*
X33587314Y20541429D01*
X33587314Y20627143D02*
X33287314Y20627143D01*
X33330171Y20598572D01*
X33358742Y20570000D01*
X33373028Y20541429D01*
X33387314Y20970000D02*
X33587314Y20970000D01*
X33273028Y20898572D02*
X33487314Y20827143D01*
X33487314Y21012858D01*
D12*
%TO.C,J3*%
X11990228Y38962000D02*
X12418800Y38962000D01*
X12504514Y38933429D01*
X12561657Y38876286D01*
X12590228Y38790572D01*
X12590228Y38733429D01*
X11990228Y39190572D02*
X11990228Y39562000D01*
X12218800Y39362000D01*
X12218800Y39447715D01*
X12247371Y39504858D01*
X12275942Y39533429D01*
X12333085Y39562000D01*
X12475942Y39562000D01*
X12533085Y39533429D01*
X12561657Y39504858D01*
X12590228Y39447715D01*
X12590228Y39276286D01*
X12561657Y39219143D01*
X12533085Y39190572D01*
D13*
%TO.C,C4*%
X48270933Y36873358D02*
X48223314Y36825739D01*
X48080457Y36778120D01*
X47985219Y36778120D01*
X47842361Y36825739D01*
X47747123Y36920977D01*
X47699504Y37016215D01*
X47651885Y37206691D01*
X47651885Y37349548D01*
X47699504Y37540024D01*
X47747123Y37635262D01*
X47842361Y37730500D01*
X47985219Y37778120D01*
X48080457Y37778120D01*
X48223314Y37730500D01*
X48270933Y37682881D01*
X49128076Y37444786D02*
X49128076Y36778120D01*
X48889980Y37825739D02*
X48651885Y37111453D01*
X49270933Y37111453D01*
%TO.C,D4*%
X15958554Y9637020D02*
X15958554Y10637020D01*
X16196650Y10637020D01*
X16339507Y10589400D01*
X16434745Y10494162D01*
X16482364Y10398924D01*
X16529983Y10208448D01*
X16529983Y10065591D01*
X16482364Y9875115D01*
X16434745Y9779877D01*
X16339507Y9684639D01*
X16196650Y9637020D01*
X15958554Y9637020D01*
X17387126Y10303686D02*
X17387126Y9637020D01*
X17149030Y10684639D02*
X16910935Y9970353D01*
X17529983Y9970353D01*
%TO.C,J2*%
X70038780Y17441867D02*
X70753066Y17441867D01*
X70895923Y17394248D01*
X70991161Y17299010D01*
X71038780Y17156153D01*
X71038780Y17060915D01*
X70134019Y17870439D02*
X70086400Y17918058D01*
X70038780Y18013296D01*
X70038780Y18251391D01*
X70086400Y18346629D01*
X70134019Y18394248D01*
X70229257Y18441867D01*
X70324495Y18441867D01*
X70467352Y18394248D01*
X71038780Y17822820D01*
X71038780Y18441867D01*
%TO.C,L1*%
X30567133Y9528620D02*
X30090942Y9528620D01*
X30090942Y10528620D01*
X31424276Y9528620D02*
X30852847Y9528620D01*
X31138561Y9528620D02*
X31138561Y10528620D01*
X31043323Y10385762D01*
X30948085Y10290524D01*
X30852847Y10242905D01*
%TO.C,C1*%
X44455542Y37014134D02*
X44503161Y36966515D01*
X44550780Y36823658D01*
X44550780Y36728420D01*
X44503161Y36585562D01*
X44407923Y36490324D01*
X44312685Y36442705D01*
X44122209Y36395086D01*
X43979352Y36395086D01*
X43788876Y36442705D01*
X43693638Y36490324D01*
X43598400Y36585562D01*
X43550780Y36728420D01*
X43550780Y36823658D01*
X43598400Y36966515D01*
X43646019Y37014134D01*
X44550780Y37966515D02*
X44550780Y37395086D01*
X44550780Y37680800D02*
X43550780Y37680800D01*
X43693638Y37585562D01*
X43788876Y37490324D01*
X43836495Y37395086D01*
D16*
%TO.C,R12*%
X27315142Y14489886D02*
X27215142Y14632743D01*
X27143714Y14489886D02*
X27143714Y14789886D01*
X27258000Y14789886D01*
X27286571Y14775600D01*
X27300857Y14761315D01*
X27315142Y14732743D01*
X27315142Y14689886D01*
X27300857Y14661315D01*
X27286571Y14647029D01*
X27258000Y14632743D01*
X27143714Y14632743D01*
X27600857Y14489886D02*
X27429428Y14489886D01*
X27515142Y14489886D02*
X27515142Y14789886D01*
X27486571Y14747029D01*
X27458000Y14718458D01*
X27429428Y14704172D01*
X27715142Y14761315D02*
X27729428Y14775600D01*
X27758000Y14789886D01*
X27829428Y14789886D01*
X27858000Y14775600D01*
X27872285Y14761315D01*
X27886571Y14732743D01*
X27886571Y14704172D01*
X27872285Y14661315D01*
X27700857Y14489886D01*
X27886571Y14489886D01*
%TO.C,R11*%
X22563714Y33000143D02*
X22420857Y32900143D01*
X22563714Y32828715D02*
X22263714Y32828715D01*
X22263714Y32943000D01*
X22278000Y32971572D01*
X22292285Y32985858D01*
X22320857Y33000143D01*
X22363714Y33000143D01*
X22392285Y32985858D01*
X22406571Y32971572D01*
X22420857Y32943000D01*
X22420857Y32828715D01*
X22563714Y33285858D02*
X22563714Y33114429D01*
X22563714Y33200143D02*
X22263714Y33200143D01*
X22306571Y33171572D01*
X22335142Y33143000D01*
X22349428Y33114429D01*
X22563714Y33571572D02*
X22563714Y33400143D01*
X22563714Y33485858D02*
X22263714Y33485858D01*
X22306571Y33457286D01*
X22335142Y33428715D01*
X22349428Y33400143D01*
D13*
%TO.C,U6*%
X58853095Y22867954D02*
X58853095Y22058430D01*
X58900714Y21963192D01*
X58948333Y21915573D01*
X59043571Y21867954D01*
X59234047Y21867954D01*
X59329285Y21915573D01*
X59376904Y21963192D01*
X59424523Y22058430D01*
X59424523Y22867954D01*
X60329285Y22867954D02*
X60138809Y22867954D01*
X60043571Y22820334D01*
X59995952Y22772715D01*
X59900714Y22629858D01*
X59853095Y22439382D01*
X59853095Y22058430D01*
X59900714Y21963192D01*
X59948333Y21915573D01*
X60043571Y21867954D01*
X60234047Y21867954D01*
X60329285Y21915573D01*
X60376904Y21963192D01*
X60424523Y22058430D01*
X60424523Y22296525D01*
X60376904Y22391763D01*
X60329285Y22439382D01*
X60234047Y22487001D01*
X60043571Y22487001D01*
X59948333Y22439382D01*
X59900714Y22391763D01*
X59853095Y22296525D01*
D16*
%TO.C,R7*%
X8687400Y11594286D02*
X8587400Y11737143D01*
X8515971Y11594286D02*
X8515971Y11894286D01*
X8630257Y11894286D01*
X8658828Y11880000D01*
X8673114Y11865715D01*
X8687400Y11837143D01*
X8687400Y11794286D01*
X8673114Y11765715D01*
X8658828Y11751429D01*
X8630257Y11737143D01*
X8515971Y11737143D01*
X8787400Y11894286D02*
X8987400Y11894286D01*
X8858828Y11594286D01*
%TO.C,R10*%
X19745942Y33971686D02*
X19645942Y34114543D01*
X19574514Y33971686D02*
X19574514Y34271686D01*
X19688800Y34271686D01*
X19717371Y34257400D01*
X19731657Y34243115D01*
X19745942Y34214543D01*
X19745942Y34171686D01*
X19731657Y34143115D01*
X19717371Y34128829D01*
X19688800Y34114543D01*
X19574514Y34114543D01*
X20031657Y33971686D02*
X19860228Y33971686D01*
X19945942Y33971686D02*
X19945942Y34271686D01*
X19917371Y34228829D01*
X19888800Y34200258D01*
X19860228Y34185972D01*
X20217371Y34271686D02*
X20245942Y34271686D01*
X20274514Y34257400D01*
X20288800Y34243115D01*
X20303085Y34214543D01*
X20317371Y34157400D01*
X20317371Y34085972D01*
X20303085Y34028829D01*
X20288800Y34000258D01*
X20274514Y33985972D01*
X20245942Y33971686D01*
X20217371Y33971686D01*
X20188800Y33985972D01*
X20174514Y34000258D01*
X20160228Y34028829D01*
X20145942Y34085972D01*
X20145942Y34157400D01*
X20160228Y34214543D01*
X20174514Y34243115D01*
X20188800Y34257400D01*
X20217371Y34271686D01*
D13*
%TO.C,U5*%
X31978476Y19381696D02*
X31978476Y18734077D01*
X32016571Y18657886D01*
X32054666Y18619791D01*
X32130857Y18581696D01*
X32283238Y18581696D01*
X32359428Y18619791D01*
X32397523Y18657886D01*
X32435619Y18734077D01*
X32435619Y19381696D01*
X33197523Y19381696D02*
X32816571Y19381696D01*
X32778476Y19000743D01*
X32816571Y19038839D01*
X32892761Y19076934D01*
X33083238Y19076934D01*
X33159428Y19038839D01*
X33197523Y19000743D01*
X33235619Y18924553D01*
X33235619Y18734077D01*
X33197523Y18657886D01*
X33159428Y18619791D01*
X33083238Y18581696D01*
X32892761Y18581696D01*
X32816571Y18619791D01*
X32778476Y18657886D01*
%TO.C,U4*%
X58853095Y31651287D02*
X58853095Y30841763D01*
X58900714Y30746525D01*
X58948333Y30698906D01*
X59043571Y30651287D01*
X59234047Y30651287D01*
X59329285Y30698906D01*
X59376904Y30746525D01*
X59424523Y30841763D01*
X59424523Y31651287D01*
X60329285Y31317953D02*
X60329285Y30651287D01*
X60091190Y31698906D02*
X59853095Y30984620D01*
X60472142Y30984620D01*
D12*
%TO.C,C31*%
X26793657Y18749943D02*
X26774609Y18730896D01*
X26717466Y18711848D01*
X26679371Y18711848D01*
X26622228Y18730896D01*
X26584133Y18768991D01*
X26565085Y18807086D01*
X26546038Y18883277D01*
X26546038Y18940420D01*
X26565085Y19016610D01*
X26584133Y19054705D01*
X26622228Y19092800D01*
X26679371Y19111848D01*
X26717466Y19111848D01*
X26774609Y19092800D01*
X26793657Y19073753D01*
X26926990Y19111848D02*
X27174609Y19111848D01*
X27041276Y18959467D01*
X27098419Y18959467D01*
X27136514Y18940420D01*
X27155561Y18921372D01*
X27174609Y18883277D01*
X27174609Y18788039D01*
X27155561Y18749943D01*
X27136514Y18730896D01*
X27098419Y18711848D01*
X26984133Y18711848D01*
X26946038Y18730896D01*
X26926990Y18749943D01*
X27555561Y18711848D02*
X27326990Y18711848D01*
X27441276Y18711848D02*
X27441276Y19111848D01*
X27403180Y19054705D01*
X27365085Y19016610D01*
X27326990Y18997562D01*
D16*
%TO.C,C28*%
X21417542Y13061143D02*
X21431828Y13046858D01*
X21446114Y13004000D01*
X21446114Y12975429D01*
X21431828Y12932572D01*
X21403257Y12904000D01*
X21374685Y12889715D01*
X21317542Y12875429D01*
X21274685Y12875429D01*
X21217542Y12889715D01*
X21188971Y12904000D01*
X21160400Y12932572D01*
X21146114Y12975429D01*
X21146114Y13004000D01*
X21160400Y13046858D01*
X21174685Y13061143D01*
X21174685Y13175429D02*
X21160400Y13189715D01*
X21146114Y13218286D01*
X21146114Y13289715D01*
X21160400Y13318286D01*
X21174685Y13332572D01*
X21203257Y13346858D01*
X21231828Y13346858D01*
X21274685Y13332572D01*
X21446114Y13161143D01*
X21446114Y13346858D01*
X21274685Y13518286D02*
X21260400Y13489715D01*
X21246114Y13475429D01*
X21217542Y13461143D01*
X21203257Y13461143D01*
X21174685Y13475429D01*
X21160400Y13489715D01*
X21146114Y13518286D01*
X21146114Y13575429D01*
X21160400Y13604000D01*
X21174685Y13618286D01*
X21203257Y13632572D01*
X21217542Y13632572D01*
X21246114Y13618286D01*
X21260400Y13604000D01*
X21274685Y13575429D01*
X21274685Y13518286D01*
X21288971Y13489715D01*
X21303257Y13475429D01*
X21331828Y13461143D01*
X21388971Y13461143D01*
X21417542Y13475429D01*
X21431828Y13489715D01*
X21446114Y13518286D01*
X21446114Y13575429D01*
X21431828Y13604000D01*
X21417542Y13618286D01*
X21388971Y13632572D01*
X21331828Y13632572D01*
X21303257Y13618286D01*
X21288971Y13604000D01*
X21274685Y13575429D01*
%TO.C,C6*%
X48794000Y32551358D02*
X48779714Y32537072D01*
X48736857Y32522786D01*
X48708285Y32522786D01*
X48665428Y32537072D01*
X48636857Y32565643D01*
X48622571Y32594215D01*
X48608285Y32651358D01*
X48608285Y32694215D01*
X48622571Y32751358D01*
X48636857Y32779929D01*
X48665428Y32808500D01*
X48708285Y32822786D01*
X48736857Y32822786D01*
X48779714Y32808500D01*
X48794000Y32794215D01*
X49051142Y32822786D02*
X48994000Y32822786D01*
X48965428Y32808500D01*
X48951142Y32794215D01*
X48922571Y32751358D01*
X48908285Y32694215D01*
X48908285Y32579929D01*
X48922571Y32551358D01*
X48936857Y32537072D01*
X48965428Y32522786D01*
X49022571Y32522786D01*
X49051142Y32537072D01*
X49065428Y32551358D01*
X49079714Y32579929D01*
X49079714Y32651358D01*
X49065428Y32679929D01*
X49051142Y32694215D01*
X49022571Y32708500D01*
X48965428Y32708500D01*
X48936857Y32694215D01*
X48922571Y32679929D01*
X48908285Y32651358D01*
%TO.C,R8*%
X12370400Y11617786D02*
X12270400Y11760643D01*
X12198971Y11617786D02*
X12198971Y11917786D01*
X12313257Y11917786D01*
X12341828Y11903500D01*
X12356114Y11889215D01*
X12370400Y11860643D01*
X12370400Y11817786D01*
X12356114Y11789215D01*
X12341828Y11774929D01*
X12313257Y11760643D01*
X12198971Y11760643D01*
X12541828Y11789215D02*
X12513257Y11803500D01*
X12498971Y11817786D01*
X12484685Y11846358D01*
X12484685Y11860643D01*
X12498971Y11889215D01*
X12513257Y11903500D01*
X12541828Y11917786D01*
X12598971Y11917786D01*
X12627542Y11903500D01*
X12641828Y11889215D01*
X12656114Y11860643D01*
X12656114Y11846358D01*
X12641828Y11817786D01*
X12627542Y11803500D01*
X12598971Y11789215D01*
X12541828Y11789215D01*
X12513257Y11774929D01*
X12498971Y11760643D01*
X12484685Y11732072D01*
X12484685Y11674929D01*
X12498971Y11646358D01*
X12513257Y11632072D01*
X12541828Y11617786D01*
X12598971Y11617786D01*
X12627542Y11632072D01*
X12641828Y11646358D01*
X12656114Y11674929D01*
X12656114Y11732072D01*
X12641828Y11760643D01*
X12627542Y11774929D01*
X12598971Y11789215D01*
%TO.C,C35*%
X37678342Y12586958D02*
X37664057Y12572672D01*
X37621200Y12558386D01*
X37592628Y12558386D01*
X37549771Y12572672D01*
X37521200Y12601243D01*
X37506914Y12629815D01*
X37492628Y12686958D01*
X37492628Y12729815D01*
X37506914Y12786958D01*
X37521200Y12815529D01*
X37549771Y12844100D01*
X37592628Y12858386D01*
X37621200Y12858386D01*
X37664057Y12844100D01*
X37678342Y12829815D01*
X37778342Y12858386D02*
X37964057Y12858386D01*
X37864057Y12744100D01*
X37906914Y12744100D01*
X37935485Y12729815D01*
X37949771Y12715529D01*
X37964057Y12686958D01*
X37964057Y12615529D01*
X37949771Y12586958D01*
X37935485Y12572672D01*
X37906914Y12558386D01*
X37821200Y12558386D01*
X37792628Y12572672D01*
X37778342Y12586958D01*
X38235485Y12858386D02*
X38092628Y12858386D01*
X38078342Y12715529D01*
X38092628Y12729815D01*
X38121200Y12744100D01*
X38192628Y12744100D01*
X38221200Y12729815D01*
X38235485Y12715529D01*
X38249771Y12686958D01*
X38249771Y12615529D01*
X38235485Y12586958D01*
X38221200Y12572672D01*
X38192628Y12558386D01*
X38121200Y12558386D01*
X38092628Y12572672D01*
X38078342Y12586958D01*
D13*
%TO.C,J4*%
X4670266Y34705820D02*
X4670266Y33991534D01*
X4622647Y33848677D01*
X4527409Y33753439D01*
X4384552Y33705820D01*
X4289314Y33705820D01*
X5575028Y34372486D02*
X5575028Y33705820D01*
X5336933Y34753439D02*
X5098838Y34039153D01*
X5717885Y34039153D01*
%TO.C,L3*%
X35494733Y20743220D02*
X35018542Y20743220D01*
X35018542Y21743220D01*
X35732828Y21743220D02*
X36351876Y21743220D01*
X36018542Y21362267D01*
X36161400Y21362267D01*
X36256638Y21314648D01*
X36304257Y21267029D01*
X36351876Y21171791D01*
X36351876Y20933696D01*
X36304257Y20838458D01*
X36256638Y20790839D01*
X36161400Y20743220D01*
X35875685Y20743220D01*
X35780447Y20790839D01*
X35732828Y20838458D01*
%TO.C,U3*%
X58853095Y40434620D02*
X58853095Y39625096D01*
X58900714Y39529858D01*
X58948333Y39482239D01*
X59043571Y39434620D01*
X59234047Y39434620D01*
X59329285Y39482239D01*
X59376904Y39529858D01*
X59424523Y39625096D01*
X59424523Y40434620D01*
X59805476Y40434620D02*
X60424523Y40434620D01*
X60091190Y40053667D01*
X60234047Y40053667D01*
X60329285Y40006048D01*
X60376904Y39958429D01*
X60424523Y39863191D01*
X60424523Y39625096D01*
X60376904Y39529858D01*
X60329285Y39482239D01*
X60234047Y39434620D01*
X59948333Y39434620D01*
X59853095Y39482239D01*
X59805476Y39529858D01*
%TO.C,L2*%
X26321433Y34801620D02*
X25845242Y34801620D01*
X25845242Y35801620D01*
X26607147Y35706381D02*
X26654766Y35754000D01*
X26750004Y35801620D01*
X26988100Y35801620D01*
X27083338Y35754000D01*
X27130957Y35706381D01*
X27178576Y35611143D01*
X27178576Y35515905D01*
X27130957Y35373048D01*
X26559528Y34801620D01*
X27178576Y34801620D01*
D16*
%TO.C,C37*%
X30155142Y20427143D02*
X30169428Y20412858D01*
X30183714Y20370000D01*
X30183714Y20341429D01*
X30169428Y20298572D01*
X30140857Y20270000D01*
X30112285Y20255715D01*
X30055142Y20241429D01*
X30012285Y20241429D01*
X29955142Y20255715D01*
X29926571Y20270000D01*
X29898000Y20298572D01*
X29883714Y20341429D01*
X29883714Y20370000D01*
X29898000Y20412858D01*
X29912285Y20427143D01*
X29883714Y20527143D02*
X29883714Y20712858D01*
X29998000Y20612858D01*
X29998000Y20655715D01*
X30012285Y20684286D01*
X30026571Y20698572D01*
X30055142Y20712858D01*
X30126571Y20712858D01*
X30155142Y20698572D01*
X30169428Y20684286D01*
X30183714Y20655715D01*
X30183714Y20570000D01*
X30169428Y20541429D01*
X30155142Y20527143D01*
X29883714Y20812858D02*
X29883714Y21012858D01*
X30183714Y20884286D01*
D13*
%TO.C,C11*%
X37407142Y40192858D02*
X37359523Y40145239D01*
X37216666Y40097620D01*
X37121428Y40097620D01*
X36978571Y40145239D01*
X36883333Y40240477D01*
X36835714Y40335715D01*
X36788095Y40526191D01*
X36788095Y40669048D01*
X36835714Y40859524D01*
X36883333Y40954762D01*
X36978571Y41050000D01*
X37121428Y41097620D01*
X37216666Y41097620D01*
X37359523Y41050000D01*
X37407142Y41002381D01*
X38359523Y40097620D02*
X37788095Y40097620D01*
X38073809Y40097620D02*
X38073809Y41097620D01*
X37978571Y40954762D01*
X37883333Y40859524D01*
X37788095Y40811905D01*
X39311904Y40097620D02*
X38740476Y40097620D01*
X39026190Y40097620D02*
X39026190Y41097620D01*
X38930952Y40954762D01*
X38835714Y40859524D01*
X38740476Y40811905D01*
D12*
%TO.C,R4*%
X49025752Y13641834D02*
X48835276Y13508500D01*
X49025752Y13413262D02*
X48625752Y13413262D01*
X48625752Y13565643D01*
X48644800Y13603739D01*
X48663847Y13622786D01*
X48701942Y13641834D01*
X48759085Y13641834D01*
X48797180Y13622786D01*
X48816228Y13603739D01*
X48835276Y13565643D01*
X48835276Y13413262D01*
X48759085Y13984691D02*
X49025752Y13984691D01*
X48606704Y13889453D02*
X48892419Y13794215D01*
X48892419Y14041834D01*
D16*
%TO.C,C33*%
X30617142Y12029258D02*
X30602857Y12014972D01*
X30560000Y12000686D01*
X30531428Y12000686D01*
X30488571Y12014972D01*
X30460000Y12043543D01*
X30445714Y12072115D01*
X30431428Y12129258D01*
X30431428Y12172115D01*
X30445714Y12229258D01*
X30460000Y12257829D01*
X30488571Y12286400D01*
X30531428Y12300686D01*
X30560000Y12300686D01*
X30602857Y12286400D01*
X30617142Y12272115D01*
X30717142Y12300686D02*
X30902857Y12300686D01*
X30802857Y12186400D01*
X30845714Y12186400D01*
X30874285Y12172115D01*
X30888571Y12157829D01*
X30902857Y12129258D01*
X30902857Y12057829D01*
X30888571Y12029258D01*
X30874285Y12014972D01*
X30845714Y12000686D01*
X30760000Y12000686D01*
X30731428Y12014972D01*
X30717142Y12029258D01*
X31002857Y12300686D02*
X31188571Y12300686D01*
X31088571Y12186400D01*
X31131428Y12186400D01*
X31160000Y12172115D01*
X31174285Y12157829D01*
X31188571Y12129258D01*
X31188571Y12057829D01*
X31174285Y12029258D01*
X31160000Y12014972D01*
X31131428Y12000686D01*
X31045714Y12000686D01*
X31017142Y12014972D01*
X31002857Y12029258D01*
D12*
%TO.C,R2*%
X46434952Y13591834D02*
X46244476Y13458500D01*
X46434952Y13363262D02*
X46034952Y13363262D01*
X46034952Y13515643D01*
X46054000Y13553739D01*
X46073047Y13572786D01*
X46111142Y13591834D01*
X46168285Y13591834D01*
X46206380Y13572786D01*
X46225428Y13553739D01*
X46244476Y13515643D01*
X46244476Y13363262D01*
X46073047Y13744215D02*
X46054000Y13763262D01*
X46034952Y13801358D01*
X46034952Y13896596D01*
X46054000Y13934691D01*
X46073047Y13953739D01*
X46111142Y13972786D01*
X46149238Y13972786D01*
X46206380Y13953739D01*
X46434952Y13725167D01*
X46434952Y13972786D01*
D13*
%TO.C,J1*%
X69937180Y27551067D02*
X70651466Y27551067D01*
X70794323Y27503448D01*
X70889561Y27408210D01*
X70937180Y27265353D01*
X70937180Y27170115D01*
X70937180Y28551067D02*
X70937180Y27979639D01*
X70937180Y28265353D02*
X69937180Y28265353D01*
X70080038Y28170115D01*
X70175276Y28074877D01*
X70222895Y27979639D01*
%TO.C,SW1*%
X25323733Y3913191D02*
X25438019Y3875096D01*
X25628495Y3875096D01*
X25704685Y3913191D01*
X25742780Y3951286D01*
X25780876Y4027477D01*
X25780876Y4103667D01*
X25742780Y4179858D01*
X25704685Y4217953D01*
X25628495Y4256048D01*
X25476114Y4294143D01*
X25399923Y4332239D01*
X25361828Y4370334D01*
X25323733Y4446524D01*
X25323733Y4522715D01*
X25361828Y4598905D01*
X25399923Y4637000D01*
X25476114Y4675096D01*
X25666590Y4675096D01*
X25780876Y4637000D01*
X26047542Y4675096D02*
X26238019Y3875096D01*
X26390400Y4446524D01*
X26542780Y3875096D01*
X26733257Y4675096D01*
X27457066Y3875096D02*
X26999923Y3875096D01*
X27228495Y3875096D02*
X27228495Y4675096D01*
X27152304Y4560810D01*
X27076114Y4484620D01*
X26999923Y4446524D01*
%TO.C,D5*%
X15939754Y11963420D02*
X15939754Y12963420D01*
X16177850Y12963420D01*
X16320707Y12915800D01*
X16415945Y12820562D01*
X16463564Y12725324D01*
X16511183Y12534848D01*
X16511183Y12391991D01*
X16463564Y12201515D01*
X16415945Y12106277D01*
X16320707Y12011039D01*
X16177850Y11963420D01*
X15939754Y11963420D01*
X17415945Y12963420D02*
X16939754Y12963420D01*
X16892135Y12487229D01*
X16939754Y12534848D01*
X17034992Y12582467D01*
X17273088Y12582467D01*
X17368326Y12534848D01*
X17415945Y12487229D01*
X17463564Y12391991D01*
X17463564Y12153896D01*
X17415945Y12058658D01*
X17368326Y12011039D01*
X17273088Y11963420D01*
X17034992Y11963420D01*
X16939754Y12011039D01*
X16892135Y12058658D01*
%TO.C,D6*%
X40435104Y16154420D02*
X40435104Y17154420D01*
X40673200Y17154420D01*
X40816057Y17106800D01*
X40911295Y17011562D01*
X40958914Y16916324D01*
X41006533Y16725848D01*
X41006533Y16582991D01*
X40958914Y16392515D01*
X40911295Y16297277D01*
X40816057Y16202039D01*
X40673200Y16154420D01*
X40435104Y16154420D01*
X41863676Y17154420D02*
X41673200Y17154420D01*
X41577961Y17106800D01*
X41530342Y17059181D01*
X41435104Y16916324D01*
X41387485Y16725848D01*
X41387485Y16344896D01*
X41435104Y16249658D01*
X41482723Y16202039D01*
X41577961Y16154420D01*
X41768438Y16154420D01*
X41863676Y16202039D01*
X41911295Y16249658D01*
X41958914Y16344896D01*
X41958914Y16582991D01*
X41911295Y16678229D01*
X41863676Y16725848D01*
X41768438Y16773467D01*
X41577961Y16773467D01*
X41482723Y16725848D01*
X41435104Y16678229D01*
X41387485Y16582991D01*
D16*
%TO.C,C27*%
X24795742Y13086543D02*
X24810028Y13072258D01*
X24824314Y13029400D01*
X24824314Y13000829D01*
X24810028Y12957972D01*
X24781457Y12929400D01*
X24752885Y12915115D01*
X24695742Y12900829D01*
X24652885Y12900829D01*
X24595742Y12915115D01*
X24567171Y12929400D01*
X24538600Y12957972D01*
X24524314Y13000829D01*
X24524314Y13029400D01*
X24538600Y13072258D01*
X24552885Y13086543D01*
X24552885Y13200829D02*
X24538600Y13215115D01*
X24524314Y13243686D01*
X24524314Y13315115D01*
X24538600Y13343686D01*
X24552885Y13357972D01*
X24581457Y13372258D01*
X24610028Y13372258D01*
X24652885Y13357972D01*
X24824314Y13186543D01*
X24824314Y13372258D01*
X24524314Y13472258D02*
X24524314Y13672258D01*
X24824314Y13543686D01*
D12*
%TO.C,D1*%
X48821752Y9605962D02*
X48421752Y9605962D01*
X48421752Y9701200D01*
X48440800Y9758343D01*
X48478895Y9796439D01*
X48516990Y9815486D01*
X48593180Y9834534D01*
X48650323Y9834534D01*
X48726514Y9815486D01*
X48764609Y9796439D01*
X48802704Y9758343D01*
X48821752Y9701200D01*
X48821752Y9605962D01*
X48821752Y10215486D02*
X48821752Y9986915D01*
X48821752Y10101200D02*
X48421752Y10101200D01*
X48478895Y10063105D01*
X48516990Y10025010D01*
X48536038Y9986915D01*
D13*
%TO.C,SW2*%
X10617133Y3608391D02*
X10731419Y3570296D01*
X10921895Y3570296D01*
X10998085Y3608391D01*
X11036180Y3646486D01*
X11074276Y3722677D01*
X11074276Y3798867D01*
X11036180Y3875058D01*
X10998085Y3913153D01*
X10921895Y3951248D01*
X10769514Y3989343D01*
X10693323Y4027439D01*
X10655228Y4065534D01*
X10617133Y4141724D01*
X10617133Y4217915D01*
X10655228Y4294105D01*
X10693323Y4332200D01*
X10769514Y4370296D01*
X10959990Y4370296D01*
X11074276Y4332200D01*
X11340942Y4370296D02*
X11531419Y3570296D01*
X11683800Y4141724D01*
X11836180Y3570296D01*
X12026657Y4370296D01*
X12293323Y4294105D02*
X12331419Y4332200D01*
X12407609Y4370296D01*
X12598085Y4370296D01*
X12674276Y4332200D01*
X12712371Y4294105D01*
X12750466Y4217915D01*
X12750466Y4141724D01*
X12712371Y4027439D01*
X12255228Y3570296D01*
X12750466Y3570296D01*
D18*
%TO.C,U2*%
X24337200Y31295000D02*
X24337200Y29175000D01*
X97200Y31295000D02*
X7717200Y31295000D01*
X23717200Y31295000D02*
X24337200Y31295000D01*
X7717200Y15055000D02*
X7717200Y14445000D01*
X97200Y15055000D02*
X97200Y31295000D01*
X7717200Y15055000D02*
X97200Y15055000D01*
X24337200Y17175000D02*
X24337200Y15055000D01*
X24337200Y15055000D02*
X23717200Y15055000D01*
%TO.C,R6*%
X53602000Y9146536D02*
X53602000Y13500664D01*
X50182000Y9146536D02*
X50182000Y13500664D01*
%TO.C,R16*%
X35179524Y10699500D02*
X34670076Y10699500D01*
X35179524Y11744500D02*
X34670076Y11744500D01*
%TO.C,R9*%
X17144076Y32670500D02*
X17653524Y32670500D01*
X17144076Y33715500D02*
X17653524Y33715500D01*
D19*
%TO.C,U8*%
X25193400Y8985900D02*
G75*
G03*
X25193400Y8985900I-70000J0D01*
G01*
D18*
%TO.C,R13*%
X32958100Y11883576D02*
X32958100Y12393024D01*
X31913100Y11883576D02*
X31913100Y12393024D01*
%TO.C,C19*%
X17045200Y4271733D02*
X17045200Y4564267D01*
X16025200Y4271733D02*
X16025200Y4564267D01*
%TO.C,R15*%
X34670076Y12528300D02*
X35179524Y12528300D01*
X34670076Y13573300D02*
X35179524Y13573300D01*
D20*
%TO.C,U7*%
X58050000Y12525000D02*
X61950000Y12525000D01*
X58050000Y7475000D02*
X61950000Y7475000D01*
D10*
X56060000Y12305000D02*
G75*
G03*
X56060000Y12305000I-100000J0D01*
G01*
D18*
%TO.C,C32*%
X28674400Y12282667D02*
X28674400Y11990133D01*
X29694400Y12282667D02*
X29694400Y11990133D01*
D20*
%TO.C,U1*%
X47800000Y18211500D02*
X52200000Y18211500D01*
X47800000Y28138500D02*
X52200000Y28138500D01*
D10*
X45880000Y27675000D02*
G75*
G03*
X45880000Y27675000I-100000J0D01*
G01*
D18*
%TO.C,C9*%
X43650000Y3040000D02*
X42650000Y3040000D01*
X33690000Y1190000D02*
X33690000Y4040000D01*
X42410000Y8845563D02*
X41345563Y9910000D01*
X43150000Y2540000D02*
X43150000Y3540000D01*
X42410000Y2254437D02*
X41345563Y1190000D01*
X33690000Y9910000D02*
X33690000Y7060000D01*
X42410000Y2254437D02*
X42410000Y4040000D01*
X42410000Y8845563D02*
X42410000Y7060000D01*
X41345563Y9910000D02*
X33690000Y9910000D01*
X41345563Y1190000D02*
X33690000Y1190000D01*
%TO.C,R1*%
X53652800Y37275064D02*
X53652800Y32920936D01*
X50232800Y37275064D02*
X50232800Y32920936D01*
%TO.C,D3*%
X17367600Y4714400D02*
X17367600Y2794400D01*
X20227600Y4714400D02*
X17367600Y4714400D01*
X17367600Y2794400D02*
X20227600Y2794400D01*
%TO.C,C36*%
X37153867Y20110000D02*
X36861333Y20110000D01*
X37153867Y21130000D02*
X36861333Y21130000D01*
%TO.C,C3*%
X52393867Y16554000D02*
X52101333Y16554000D01*
X52393867Y17574000D02*
X52101333Y17574000D01*
%TO.C,C40*%
X21337800Y10834867D02*
X21337800Y10542333D01*
X20317800Y10834867D02*
X20317800Y10542333D01*
%TO.C,C7*%
X45290000Y32805867D02*
X45290000Y32513333D01*
X44270000Y32805867D02*
X44270000Y32513333D01*
%TO.C,D2*%
X47518000Y8892200D02*
X47518000Y11752200D01*
X47518000Y11752200D02*
X45598000Y11752200D01*
X45598000Y11752200D02*
X45598000Y8892200D01*
%TO.C,C5*%
X46814000Y32805867D02*
X46814000Y32513333D01*
X45794000Y32805867D02*
X45794000Y32513333D01*
%TO.C,C34*%
X38432000Y17984533D02*
X38432000Y18277067D01*
X37412000Y17984533D02*
X37412000Y18277067D01*
%TO.C,R14*%
X33196876Y21142500D02*
X33706324Y21142500D01*
X33196876Y20097500D02*
X33706324Y20097500D01*
%TO.C,J3*%
X12295000Y41730000D02*
X12295000Y44330000D01*
X9695000Y41730000D02*
X12295000Y41730000D01*
X9695000Y34050000D02*
X14895000Y34050000D01*
X9695000Y41730000D02*
X9695000Y34050000D01*
X9695000Y44330000D02*
X11025000Y44330000D01*
X9695000Y43000000D02*
X9695000Y44330000D01*
X12295000Y44330000D02*
X14895000Y44330000D01*
X14895000Y44330000D02*
X14895000Y34050000D01*
%TO.C,R5*%
X18972876Y5060700D02*
X19482324Y5060700D01*
X18972876Y6105700D02*
X19482324Y6105700D01*
%TO.C,C4*%
X49347600Y37890952D02*
X49347600Y36468448D01*
X47527600Y37890952D02*
X47527600Y36468448D01*
D20*
%TO.C,D4*%
X15832200Y10854400D02*
X17492200Y10854400D01*
X17492200Y9354400D02*
X15832200Y9354400D01*
D10*
X19462200Y10104400D02*
G75*
G03*
X19462200Y10104400I-100000J0D01*
G01*
D18*
%TO.C,L1*%
X30472548Y9036000D02*
X30995052Y9036000D01*
X30472548Y7566000D02*
X30995052Y7566000D01*
%TO.C,C1*%
X45038400Y36469548D02*
X45038400Y37892052D01*
X46858400Y36469548D02*
X46858400Y37892052D01*
%TO.C,R12*%
X28030500Y14880324D02*
X28030500Y14370876D01*
X26985500Y14880324D02*
X26985500Y14370876D01*
%TO.C,R11*%
X22175176Y32670500D02*
X22684624Y32670500D01*
X22175176Y33715500D02*
X22684624Y33715500D01*
D20*
%TO.C,U6*%
X58050000Y21308334D02*
X61950000Y21308334D01*
X58050000Y16258334D02*
X61950000Y16258334D01*
D10*
X56060000Y21088334D02*
G75*
G03*
X56060000Y21088334I-100000J0D01*
G01*
D18*
%TO.C,R7*%
X9259900Y11498776D02*
X9259900Y12008224D01*
X8214900Y11498776D02*
X8214900Y12008224D01*
%TO.C,R10*%
X20461300Y33852676D02*
X20461300Y34362124D01*
X19416300Y33852676D02*
X19416300Y34362124D01*
D20*
%TO.C,U5*%
X30489600Y13959200D02*
X34889600Y13959200D01*
X30489600Y19559200D02*
X34889600Y19559200D01*
D10*
X28589600Y19159200D02*
G75*
G03*
X28589600Y19159200I-100000J0D01*
G01*
D20*
%TO.C,U4*%
X58050000Y30091667D02*
X61950000Y30091667D01*
X58050000Y25041667D02*
X61950000Y25041667D01*
D10*
X56060000Y29871667D02*
G75*
G03*
X56060000Y29871667I-100000J0D01*
G01*
D18*
%TO.C,C31*%
X28011600Y18181548D02*
X28011600Y19604052D01*
X26191600Y18181548D02*
X26191600Y19604052D01*
%TO.C,C28*%
X21164133Y12744000D02*
X21456667Y12744000D01*
X21164133Y13764000D02*
X21456667Y13764000D01*
%TO.C,C6*%
X48334000Y32563033D02*
X48334000Y32855567D01*
X49354000Y32563033D02*
X49354000Y32855567D01*
%TO.C,R8*%
X12892100Y11526076D02*
X12892100Y12035524D01*
X11847100Y11526076D02*
X11847100Y12035524D01*
%TO.C,C35*%
X37361200Y12892267D02*
X37361200Y12599733D01*
X38381200Y12892267D02*
X38381200Y12599733D01*
%TO.C,J4*%
X2429000Y36682000D02*
X2429000Y34022000D01*
X7629000Y36682000D02*
X7629000Y35352000D01*
X5029000Y36682000D02*
X5029000Y34022000D01*
X6299000Y36682000D02*
X7629000Y36682000D01*
X5029000Y34022000D02*
X2429000Y34022000D01*
X5029000Y36682000D02*
X2429000Y36682000D01*
%TO.C,L3*%
X29361400Y22295600D02*
X29361400Y25295600D01*
X41961400Y22295600D02*
X29361400Y22295600D01*
X29361400Y31895600D02*
X29361400Y34895600D01*
X41961400Y34895600D02*
X41961400Y31895600D01*
X29361400Y34895600D02*
X41961400Y34895600D01*
X41961400Y25295600D02*
X41961400Y22295600D01*
%TO.C,G\u002A\u002A\u002A*%
G36*
X3939129Y10974445D02*
G01*
X3947197Y10997308D01*
X3961468Y11018901D01*
X3986125Y11048972D01*
X4017120Y11083321D01*
X4050403Y11117748D01*
X4081925Y11148049D01*
X4107635Y11170026D01*
X4122580Y11179251D01*
X4133559Y11187425D01*
X4157518Y11208307D01*
X4192192Y11239819D01*
X4235317Y11279886D01*
X4284626Y11326431D01*
X4320822Y11360999D01*
X4372822Y11410525D01*
X4419983Y11454745D01*
X4460092Y11491640D01*
X4490934Y11519189D01*
X4510295Y11535375D01*
X4515826Y11538863D01*
X4529091Y11545918D01*
X4548143Y11563029D01*
X4549357Y11564308D01*
X4563689Y11582888D01*
X4568831Y11602850D01*
X4566589Y11632885D01*
X4565348Y11641294D01*
X4560334Y11675605D01*
X4556732Y11703252D01*
X4555899Y11711201D01*
X4550749Y11731117D01*
X4547069Y11736863D01*
X4541954Y11752191D01*
X4539962Y11778938D01*
X4540914Y11808449D01*
X4544636Y11832073D01*
X4549189Y11840753D01*
X4557345Y11854260D01*
X4564749Y11879510D01*
X4565402Y11882809D01*
X4585473Y11942071D01*
X4621700Y12003068D01*
X4670057Y12060927D01*
X4726518Y12110774D01*
X4782464Y12145519D01*
X4819170Y12159227D01*
X4865098Y12170531D01*
X4896967Y12175406D01*
X4941594Y12177892D01*
X4991039Y12177300D01*
X5039891Y12174104D01*
X5082740Y12168776D01*
X5114176Y12161791D01*
X5127581Y12155219D01*
X5147537Y12145189D01*
X5155933Y12144130D01*
X5174486Y12136965D01*
X5195429Y12119916D01*
X5212192Y12099652D01*
X5218206Y12082843D01*
X5217856Y12081260D01*
X5209444Y12070265D01*
X5188573Y12047014D01*
X5157814Y12014255D01*
X5119736Y11974739D01*
X5089293Y11943709D01*
X5042703Y11896136D01*
X5009251Y11860586D01*
X4986823Y11834300D01*
X4973306Y11814523D01*
X4966588Y11798495D01*
X4964555Y11783460D01*
X4964523Y11780888D01*
X4974079Y11741528D01*
X4999760Y11711629D01*
X5037082Y11695514D01*
X5054690Y11693896D01*
X5069852Y11695391D01*
X5085653Y11701275D01*
X5104858Y11713650D01*
X5130228Y11734616D01*
X5164527Y11766273D01*
X5210517Y11810722D01*
X5218097Y11818136D01*
X5261271Y11859498D01*
X5300111Y11895027D01*
X5331758Y11922238D01*
X5353353Y11938645D01*
X5361060Y11942375D01*
X5376961Y11934707D01*
X5398686Y11915312D01*
X5408850Y11903865D01*
X5430488Y11871106D01*
X5443069Y11832925D01*
X5448090Y11800760D01*
X5453946Y11763052D01*
X5461372Y11732068D01*
X5467049Y11717809D01*
X5472883Y11694267D01*
X5466574Y11674907D01*
X5457251Y11648079D01*
X5449662Y11613618D01*
X5448715Y11607355D01*
X5429053Y11536517D01*
X5391451Y11466976D01*
X5339023Y11402816D01*
X5274882Y11348121D01*
X5229991Y11320431D01*
X5206763Y11308471D01*
X5186507Y11300050D01*
X5164862Y11294549D01*
X5137467Y11291347D01*
X5099963Y11289822D01*
X5047988Y11289354D01*
X5011508Y11289323D01*
X4851428Y11289323D01*
X4766240Y11199064D01*
X4732267Y11162422D01*
X4703954Y11130666D01*
X4684396Y11107350D01*
X4676780Y11096359D01*
X4668111Y11084638D01*
X4646881Y11060374D01*
X4615509Y11026079D01*
X4576413Y10984266D01*
X4532012Y10937445D01*
X4484723Y10888131D01*
X4436965Y10838834D01*
X4391157Y10792068D01*
X4349715Y10750344D01*
X4315059Y10716175D01*
X4289607Y10692072D01*
X4278091Y10682173D01*
X4249302Y10664836D01*
X4215245Y10655358D01*
X4176137Y10651587D01*
X4137344Y10650618D01*
X4104669Y10651670D01*
X4088478Y10653838D01*
X4065688Y10664922D01*
X4040705Y10683521D01*
X4040693Y10683531D01*
X4016513Y10702332D01*
X3995446Y10714070D01*
X3995323Y10714114D01*
X3975687Y10729270D01*
X3969817Y10739563D01*
X3957489Y10762786D01*
X3946166Y10778078D01*
X3935817Y10801996D01*
X3929970Y10840127D01*
X3928593Y10885936D01*
X3928894Y10890549D01*
X4025184Y10890549D01*
X4029559Y10886130D01*
X4037782Y10871424D01*
X4040693Y10849870D01*
X4049895Y10819320D01*
X4073519Y10790274D01*
X4104406Y10770624D01*
X4123687Y10767557D01*
X4155401Y10766764D01*
X4176317Y10767511D01*
X4215917Y10772669D01*
X4244447Y10785016D01*
X4265025Y10801754D01*
X4287317Y10825269D01*
X4302504Y10845671D01*
X4304610Y10849848D01*
X4313721Y10862330D01*
X4335339Y10887589D01*
X4367215Y10923132D01*
X4407098Y10966463D01*
X4452739Y11015089D01*
X4470752Y11034046D01*
X4518062Y11084218D01*
X4560501Y11130269D01*
X4595799Y11169650D01*
X4621684Y11199810D01*
X4635885Y11218201D01*
X4637712Y11221480D01*
X4653033Y11240585D01*
X4672223Y11252049D01*
X4692087Y11264063D01*
X4699055Y11275791D01*
X4706309Y11289779D01*
X4725314Y11313575D01*
X4751933Y11342974D01*
X4782029Y11373767D01*
X4811466Y11401748D01*
X4836105Y11422708D01*
X4851812Y11432440D01*
X4853310Y11432676D01*
X4870588Y11426452D01*
X4873693Y11422981D01*
X4887141Y11415207D01*
X4913242Y11407801D01*
X4922048Y11406129D01*
X4950256Y11399385D01*
X4968276Y11391415D01*
X4970403Y11389277D01*
X4984300Y11383152D01*
X5010996Y11380156D01*
X5042294Y11380222D01*
X5069997Y11383286D01*
X5085908Y11389283D01*
X5086638Y11390201D01*
X5101295Y11398459D01*
X5118794Y11400819D01*
X5157321Y11409467D01*
X5201340Y11432936D01*
X5245968Y11467516D01*
X5286326Y11509496D01*
X5314355Y11549482D01*
X5322668Y11574648D01*
X5329392Y11616255D01*
X5333786Y11669522D01*
X5334140Y11676906D01*
X5338607Y11777784D01*
X5312816Y11753892D01*
X5292700Y11737475D01*
X5278861Y11730038D01*
X5278325Y11730000D01*
X5267427Y11723113D01*
X5244979Y11704540D01*
X5214644Y11677412D01*
X5191372Y11655669D01*
X5155539Y11622054D01*
X5130145Y11600495D01*
X5110329Y11588315D01*
X5091232Y11582838D01*
X5067994Y11581389D01*
X5056382Y11581338D01*
X5004492Y11585998D01*
X4961046Y11602087D01*
X4919112Y11632773D01*
X4896962Y11654151D01*
X4869366Y11687131D01*
X4855097Y11718888D01*
X4850527Y11744280D01*
X4847631Y11785375D01*
X4850706Y11819475D01*
X4861808Y11851122D01*
X4882990Y11884860D01*
X4916308Y11925230D01*
X4948135Y11960064D01*
X4987396Y12003223D01*
X5012665Y12033877D01*
X5025414Y12054080D01*
X5027112Y12065886D01*
X5025544Y12068243D01*
X5008471Y12075266D01*
X4979428Y12079237D01*
X4946130Y12080064D01*
X4916289Y12077656D01*
X4897619Y12071919D01*
X4895501Y12069799D01*
X4880185Y12060141D01*
X4872979Y12059181D01*
X4850922Y12053951D01*
X4818389Y12040680D01*
X4782647Y12022994D01*
X4750964Y12004522D01*
X4730609Y11988891D01*
X4729388Y11987517D01*
X4715180Y11966151D01*
X4698765Y11935757D01*
X4694312Y11926447D01*
X4679965Y11895649D01*
X4668099Y11870609D01*
X4665636Y11865533D01*
X4660753Y11845038D01*
X4657818Y11811805D01*
X4656813Y11772406D01*
X4657722Y11733412D01*
X4660526Y11701396D01*
X4665209Y11682928D01*
X4666117Y11681685D01*
X4672951Y11665919D01*
X4679707Y11637028D01*
X4682623Y11618503D01*
X4689592Y11565410D01*
X4530577Y11414093D01*
X4482559Y11368706D01*
X4439680Y11328761D01*
X4404324Y11296431D01*
X4378875Y11273887D01*
X4365714Y11263302D01*
X4364578Y11262776D01*
X4352700Y11255517D01*
X4329025Y11235586D01*
X4296337Y11205753D01*
X4257420Y11168786D01*
X4215060Y11127454D01*
X4172038Y11084528D01*
X4131141Y11042774D01*
X4095153Y11004964D01*
X4066856Y10973865D01*
X4049036Y10952248D01*
X4044280Y10944214D01*
X4035594Y10918944D01*
X4028095Y10905339D01*
X4025184Y10890549D01*
X3928894Y10890549D01*
X3931657Y10932887D01*
X3939129Y10974445D01*
G37*
G36*
X2543779Y10872099D02*
G01*
X2547822Y10841116D01*
X2550892Y10789592D01*
X2551783Y10761730D01*
X2553956Y10712640D01*
X2557526Y10670838D01*
X2561965Y10641241D01*
X2565972Y10629418D01*
X2582294Y10621719D01*
X2613684Y10615690D01*
X2647054Y10612843D01*
X2689516Y10608954D01*
X2715059Y10602133D01*
X2721355Y10596451D01*
X2717987Y10589982D01*
X2700995Y10585854D01*
X2667738Y10583710D01*
X2623686Y10583177D01*
X2521632Y10583177D01*
X2524578Y10734494D01*
X2526797Y10799529D01*
X2530272Y10846253D01*
X2534558Y10874221D01*
X2539209Y10882985D01*
X2543779Y10872099D01*
G37*
G36*
X2164078Y12844228D02*
G01*
X2205650Y12841923D01*
X2228952Y12837917D01*
X2235510Y12832696D01*
X2241389Y12816741D01*
X2255914Y12792934D01*
X2259761Y12787566D01*
X2279770Y12757982D01*
X2295865Y12730153D01*
X2296850Y12728161D01*
X2309120Y12704356D01*
X2324526Y12678255D01*
X2346905Y12643487D01*
X2357603Y12627328D01*
X2379276Y12593042D01*
X2402119Y12553004D01*
X2429297Y12501569D01*
X2442273Y12476178D01*
X2458889Y12445323D01*
X2472720Y12422935D01*
X2479178Y12415256D01*
X2488814Y12403256D01*
X2503311Y12378972D01*
X2510918Y12364604D01*
X2536146Y12316263D01*
X2554783Y12283778D01*
X2568917Y12263623D01*
X2574079Y12257919D01*
X2584863Y12238616D01*
X2585928Y12231557D01*
X2591987Y12214410D01*
X2607071Y12189628D01*
X2612474Y12182240D01*
X2629127Y12158605D01*
X2638362Y12142002D01*
X2639021Y12139347D01*
X2645025Y12126793D01*
X2660209Y12104378D01*
X2669113Y12092565D01*
X2689341Y12064184D01*
X2704168Y12039170D01*
X2707097Y12032634D01*
X2713259Y12020255D01*
X2721246Y12021302D01*
X2736013Y12037332D01*
X2740850Y12043253D01*
X2761697Y12073125D01*
X2783096Y12110000D01*
X2789608Y12122893D01*
X2810027Y12160886D01*
X2833358Y12198017D01*
X2840380Y12207843D01*
X2861257Y12237923D01*
X2878180Y12266057D01*
X2880987Y12271555D01*
X2893847Y12296556D01*
X2910211Y12324105D01*
X2934018Y12360735D01*
X2941655Y12372167D01*
X2966594Y12410646D01*
X2987651Y12446835D01*
X3011091Y12491510D01*
X3011356Y12492029D01*
X3026854Y12519983D01*
X3039842Y12539142D01*
X3043927Y12543194D01*
X3054604Y12556087D01*
X3068007Y12579745D01*
X3069525Y12582879D01*
X3090932Y12624622D01*
X3115580Y12664690D01*
X3133719Y12691215D01*
X3150793Y12716968D01*
X3162755Y12737409D01*
X3163427Y12738779D01*
X3173120Y12757483D01*
X3188539Y12785608D01*
X3195049Y12797182D01*
X3219127Y12839657D01*
X3348305Y12842637D01*
X3406043Y12843696D01*
X3444501Y12842613D01*
X3465632Y12837705D01*
X3471390Y12827290D01*
X3463726Y12809686D01*
X3444595Y12783211D01*
X3433662Y12769107D01*
X3415679Y12744371D01*
X3404923Y12726459D01*
X3403570Y12722325D01*
X3397658Y12709501D01*
X3382898Y12687336D01*
X3377023Y12679432D01*
X3360396Y12656049D01*
X3351151Y12639968D01*
X3350476Y12637483D01*
X3344544Y12625474D01*
X3329548Y12603362D01*
X3320808Y12591645D01*
X3299367Y12561468D01*
X3281970Y12533251D01*
X3278410Y12526405D01*
X3260115Y12491814D01*
X3236989Y12456011D01*
X3209778Y12418731D01*
X3192264Y12394000D01*
X3181841Y12376387D01*
X3180576Y12372544D01*
X3174914Y12359855D01*
X3160885Y12337784D01*
X3156684Y12331818D01*
X3123694Y12282936D01*
X3097300Y12236069D01*
X3093752Y12229080D01*
X3078133Y12201226D01*
X3059078Y12171096D01*
X3058794Y12170677D01*
X3031396Y12129355D01*
X3012477Y12098103D01*
X2997830Y12069966D01*
X2997749Y12069799D01*
X2982453Y12044359D01*
X2960665Y12014801D01*
X2955352Y12008372D01*
X2937046Y11984461D01*
X2926635Y11966291D01*
X2925727Y11962534D01*
X2919750Y11947791D01*
X2904846Y11924453D01*
X2899180Y11916772D01*
X2882446Y11892362D01*
X2873246Y11874140D01*
X2872633Y11870996D01*
X2865298Y11855682D01*
X2856705Y11846806D01*
X2852228Y11840475D01*
X2848653Y11828289D01*
X2845885Y11808112D01*
X2843827Y11777806D01*
X2842384Y11735235D01*
X2841459Y11678262D01*
X2840957Y11604750D01*
X2840781Y11512562D01*
X2840777Y11491902D01*
X2840543Y11389364D01*
X2839804Y11306570D01*
X2838507Y11242034D01*
X2836598Y11194266D01*
X2834024Y11161780D01*
X2830732Y11143088D01*
X2828035Y11137475D01*
X2809895Y11130666D01*
X2772924Y11126332D01*
X2719408Y11124736D01*
X2716538Y11124732D01*
X2617784Y11124732D01*
X2617784Y11467596D01*
X2617753Y11565667D01*
X2617405Y11645067D01*
X2616361Y11708360D01*
X2614238Y11758111D01*
X2610656Y11796887D01*
X2605234Y11827251D01*
X2597591Y11851771D01*
X2587345Y11873010D01*
X2574116Y11893534D01*
X2557523Y11915910D01*
X2549674Y11926195D01*
X2532721Y11949956D01*
X2523066Y11966462D01*
X2522215Y11969340D01*
X2516154Y11981172D01*
X2500747Y12003198D01*
X2490359Y12016706D01*
X2471722Y12041596D01*
X2460252Y12059534D01*
X2458503Y12064072D01*
X2452899Y12076573D01*
X2438995Y12098662D01*
X2434584Y12105019D01*
X2404981Y12148319D01*
X2384141Y12182830D01*
X2371288Y12207843D01*
X2356700Y12233106D01*
X2335781Y12263848D01*
X2328890Y12273083D01*
X2311055Y12298457D01*
X2300476Y12317587D01*
X2299222Y12322222D01*
X2291909Y12337066D01*
X2283294Y12345886D01*
X2269780Y12364365D01*
X2267366Y12374483D01*
X2260893Y12390293D01*
X2244079Y12415807D01*
X2224891Y12440233D01*
X2202600Y12467928D01*
X2187219Y12489446D01*
X2182416Y12499013D01*
X2176458Y12511821D01*
X2161404Y12534458D01*
X2152748Y12546114D01*
X2131307Y12576292D01*
X2113910Y12604508D01*
X2110350Y12611355D01*
X2092055Y12645945D01*
X2068928Y12681748D01*
X2041718Y12719028D01*
X2024106Y12744167D01*
X2013576Y12762622D01*
X2012280Y12766854D01*
X2006127Y12780879D01*
X1991621Y12802053D01*
X1991279Y12802492D01*
X1976693Y12823336D01*
X1970287Y12836827D01*
X1970277Y12837003D01*
X1980132Y12840019D01*
X2007211Y12842511D01*
X2047504Y12844238D01*
X2096999Y12844959D01*
X2102775Y12844967D01*
X2164078Y12844228D01*
G37*
G36*
X5153749Y12796355D02*
G01*
X5185014Y12764086D01*
X5197872Y12737047D01*
X5198135Y12733269D01*
X5202174Y12711114D01*
X5208754Y12701614D01*
X5216071Y12687425D01*
X5219359Y12661949D01*
X5219372Y12660158D01*
X5227773Y12623656D01*
X5253513Y12598517D01*
X5291058Y12585144D01*
X5321464Y12575581D01*
X5358330Y12559913D01*
X5373915Y12552106D01*
X5412062Y12534193D01*
X5440566Y12528618D01*
X5466881Y12535124D01*
X5490150Y12548081D01*
X5542360Y12578570D01*
X5587376Y12599999D01*
X5621212Y12610560D01*
X5629641Y12611355D01*
X5648232Y12603847D01*
X5677095Y12583573D01*
X5712700Y12553910D01*
X5751517Y12518233D01*
X5790015Y12479917D01*
X5824666Y12442338D01*
X5851938Y12408872D01*
X5868102Y12383324D01*
X5880166Y12355692D01*
X5882985Y12337011D01*
X5876557Y12317108D01*
X5868086Y12300006D01*
X5847144Y12263620D01*
X5822965Y12227652D01*
X5820242Y12224022D01*
X5797746Y12185403D01*
X5794901Y12154395D01*
X5808712Y12133512D01*
X5822309Y12113999D01*
X5824705Y12103010D01*
X5829488Y12081514D01*
X5840236Y12056077D01*
X5853519Y12023448D01*
X5862453Y11990444D01*
X5867090Y11970861D01*
X5875286Y11959435D01*
X5892366Y11953064D01*
X5923655Y11948649D01*
X5936648Y11947237D01*
X5979413Y11940631D01*
X6010478Y11929374D01*
X6039362Y11909671D01*
X6047100Y11903202D01*
X6090108Y11866389D01*
X6090108Y11716480D01*
X6089981Y11657256D01*
X6089184Y11615345D01*
X6087094Y11586822D01*
X6083087Y11567764D01*
X6076541Y11554245D01*
X6066833Y11542342D01*
X6061575Y11536789D01*
X6038430Y11517365D01*
X6017655Y11507368D01*
X6014417Y11507007D01*
X5994923Y11501636D01*
X5989230Y11496388D01*
X5975129Y11489245D01*
X5949327Y11485821D01*
X5945646Y11485769D01*
X5913760Y11478750D01*
X5883828Y11461089D01*
X5862624Y11437879D01*
X5856496Y11418727D01*
X5851928Y11402032D01*
X5840002Y11373130D01*
X5824774Y11341258D01*
X5804587Y11298423D01*
X5795502Y11267519D01*
X5797397Y11242449D01*
X5810153Y11217114D01*
X5821985Y11200550D01*
X5860736Y11146211D01*
X5884135Y11106374D01*
X5884262Y11106111D01*
X5883816Y11089241D01*
X5875336Y11061859D01*
X5869189Y11047708D01*
X5852216Y11020958D01*
X5824537Y10986868D01*
X5789647Y10948808D01*
X5751041Y10910143D01*
X5712214Y10874241D01*
X5676663Y10844470D01*
X5647883Y10824197D01*
X5629481Y10816789D01*
X5605112Y10822227D01*
X5569590Y10836435D01*
X5529335Y10856252D01*
X5490764Y10878520D01*
X5460301Y10900073D01*
X5447932Y10905916D01*
X5430512Y10903391D01*
X5402837Y10891245D01*
X5384984Y10881952D01*
X5347247Y10863613D01*
X5311297Y10849076D01*
X5291196Y10843030D01*
X5249514Y10827194D01*
X5225889Y10800781D01*
X5219372Y10767986D01*
X5216431Y10742122D01*
X5209296Y10726911D01*
X5208754Y10726530D01*
X5200289Y10711773D01*
X5198135Y10696034D01*
X5190102Y10672415D01*
X5170445Y10646376D01*
X5145830Y10624935D01*
X5122921Y10615108D01*
X5121195Y10615033D01*
X5102231Y10609296D01*
X5097257Y10604415D01*
X5084358Y10599882D01*
X5054687Y10596351D01*
X5012704Y10594229D01*
X4980451Y10593796D01*
X4932789Y10594769D01*
X4894500Y10597416D01*
X4870042Y10601334D01*
X4863645Y10604415D01*
X4848526Y10613637D01*
X4838458Y10615033D01*
X4819282Y10622328D01*
X4796145Y10640277D01*
X4792232Y10644235D01*
X4775430Y10666877D01*
X4764823Y10695661D01*
X4757969Y10737610D01*
X4757137Y10745261D01*
X4752076Y10782243D01*
X4746017Y10810129D01*
X4740277Y10822873D01*
X4733398Y10836685D01*
X4730911Y10858245D01*
X4739032Y10888744D01*
X4759272Y10912705D01*
X4785441Y10922953D01*
X4786725Y10922977D01*
X4808087Y10913629D01*
X4828372Y10890101D01*
X4843046Y10859165D01*
X4847717Y10831912D01*
X4850641Y10805972D01*
X4857740Y10790666D01*
X4858336Y10790243D01*
X4866163Y10775799D01*
X4868954Y10754220D01*
X4872584Y10725249D01*
X4883038Y10715281D01*
X4895077Y10720869D01*
X4910616Y10725711D01*
X4941791Y10730061D01*
X4983003Y10733231D01*
X5002154Y10734050D01*
X5097082Y10737149D01*
X5107788Y10807468D01*
X5115353Y10846169D01*
X5124544Y10877876D01*
X5132627Y10894541D01*
X5152598Y10910682D01*
X5183640Y10928691D01*
X5217446Y10944440D01*
X5245708Y10953800D01*
X5253937Y10954833D01*
X5271306Y10959475D01*
X5301313Y10971735D01*
X5337924Y10989112D01*
X5343498Y10991947D01*
X5394998Y11015716D01*
X5434782Y11026544D01*
X5467850Y11024585D01*
X5499205Y11009996D01*
X5516697Y10997308D01*
X5541842Y10978641D01*
X5560322Y10967176D01*
X5565173Y10965452D01*
X5578560Y10959033D01*
X5593410Y10947368D01*
X5603544Y10939772D01*
X5613656Y10938940D01*
X5627308Y10947039D01*
X5648062Y10966238D01*
X5679479Y10998703D01*
X5681851Y11001193D01*
X5711902Y11034708D01*
X5735239Y11064442D01*
X5748503Y11085932D01*
X5750309Y11092176D01*
X5744009Y11113711D01*
X5729071Y11138249D01*
X5714274Y11159989D01*
X5707843Y11175242D01*
X5707834Y11175546D01*
X5700549Y11190464D01*
X5693082Y11198088D01*
X5675799Y11222988D01*
X5673604Y11257751D01*
X5686619Y11304182D01*
X5702719Y11340312D01*
X5721210Y11380183D01*
X5736291Y11416836D01*
X5744856Y11442685D01*
X5745092Y11443717D01*
X5754394Y11472556D01*
X5769574Y11507761D01*
X5775797Y11520152D01*
X5794994Y11550368D01*
X5814651Y11565172D01*
X5830730Y11569004D01*
X5856826Y11574336D01*
X5872424Y11581077D01*
X5888917Y11587986D01*
X5917352Y11595028D01*
X5928173Y11596999D01*
X5973302Y11604442D01*
X5973302Y11822854D01*
X5928699Y11829987D01*
X5898262Y11836506D01*
X5876550Y11844104D01*
X5872951Y11846332D01*
X5854837Y11854227D01*
X5830730Y11859140D01*
X5807587Y11866576D01*
X5788734Y11886020D01*
X5775797Y11907991D01*
X5759520Y11942976D01*
X5747255Y11976542D01*
X5744742Y11986022D01*
X5736535Y12010833D01*
X5721181Y12047419D01*
X5701630Y12088871D01*
X5696359Y12099328D01*
X5655174Y12179860D01*
X5681504Y12214381D01*
X5698048Y12237635D01*
X5707196Y12253532D01*
X5707834Y12255898D01*
X5713779Y12268300D01*
X5728176Y12288751D01*
X5729071Y12289895D01*
X5744912Y12315092D01*
X5748645Y12338575D01*
X5738987Y12364059D01*
X5714656Y12395257D01*
X5680786Y12429715D01*
X5647635Y12461228D01*
X5625767Y12479774D01*
X5611488Y12487442D01*
X5601106Y12486326D01*
X5592345Y12479812D01*
X5574707Y12466497D01*
X5565591Y12462692D01*
X5553107Y12456768D01*
X5530709Y12441815D01*
X5519470Y12433491D01*
X5471717Y12408775D01*
X5422110Y12404483D01*
X5373779Y12420643D01*
X5356483Y12432087D01*
X5323637Y12452177D01*
X5289087Y12466280D01*
X5282979Y12467824D01*
X5255130Y12475348D01*
X5236404Y12483164D01*
X5235301Y12483930D01*
X5217980Y12491805D01*
X5191504Y12499183D01*
X5151205Y12517456D01*
X5123872Y12552395D01*
X5109362Y12604184D01*
X5109172Y12605616D01*
X5103219Y12638294D01*
X5095717Y12662324D01*
X5091846Y12668798D01*
X5082711Y12687798D01*
X5081329Y12698813D01*
X5079562Y12707744D01*
X5071689Y12713227D01*
X5053852Y12715876D01*
X5022194Y12716305D01*
X4977796Y12715272D01*
X4874264Y12712232D01*
X4870852Y12675067D01*
X4865911Y12647184D01*
X4858414Y12628786D01*
X4857579Y12627814D01*
X4850337Y12610540D01*
X4847717Y12587177D01*
X4839627Y12558274D01*
X4819390Y12528747D01*
X4793053Y12505304D01*
X4766663Y12494652D01*
X4764211Y12494549D01*
X4743927Y12490408D01*
X4736964Y12485134D01*
X4723541Y12477138D01*
X4697985Y12469579D01*
X4692555Y12468479D01*
X4632074Y12448642D01*
X4591334Y12422241D01*
X4555977Y12404732D01*
X4514733Y12404786D01*
X4466190Y12422722D01*
X4408938Y12458859D01*
X4400202Y12465347D01*
X4375013Y12482919D01*
X4356415Y12493327D01*
X4352111Y12494549D01*
X4339723Y12487210D01*
X4317720Y12468094D01*
X4290304Y12441550D01*
X4261681Y12411927D01*
X4236052Y12383575D01*
X4217622Y12360843D01*
X4210593Y12348111D01*
X4218466Y12322275D01*
X4241879Y12282848D01*
X4266341Y12248790D01*
X4285620Y12217520D01*
X4293391Y12186637D01*
X4289337Y12151444D01*
X4273142Y12107243D01*
X4254141Y12067896D01*
X4233821Y12025753D01*
X4216884Y11986243D01*
X4206330Y11956485D01*
X4205037Y11951384D01*
X4193197Y11916699D01*
X4175339Y11885527D01*
X4155574Y11863872D01*
X4140704Y11857425D01*
X4118575Y11852523D01*
X4106916Y11847350D01*
X4085510Y11839946D01*
X4053006Y11833015D01*
X4038039Y11830771D01*
X4016934Y11828269D01*
X4002378Y11824852D01*
X3993099Y11817056D01*
X3987827Y11801419D01*
X3985290Y11774480D01*
X3984217Y11732775D01*
X3983491Y11682216D01*
X3982305Y11607885D01*
X4035391Y11598999D01*
X4070164Y11591906D01*
X4098260Y11583971D01*
X4106916Y11580416D01*
X4130618Y11572062D01*
X4141183Y11570719D01*
X4160115Y11561576D01*
X4176107Y11539818D01*
X4184005Y11513952D01*
X4183139Y11501456D01*
X4172312Y11484472D01*
X4153411Y11469566D01*
X4133824Y11461143D01*
X4120938Y11463610D01*
X4120579Y11464135D01*
X4107992Y11470060D01*
X4081232Y11476345D01*
X4060125Y11479697D01*
X4026528Y11485203D01*
X4001316Y11491231D01*
X3993519Y11494370D01*
X3976260Y11502181D01*
X3949106Y11511478D01*
X3945925Y11512432D01*
X3918053Y11524135D01*
X3897960Y11542357D01*
X3884502Y11570237D01*
X3876534Y11610909D01*
X3872912Y11667511D01*
X3872346Y11714072D01*
X3873987Y11783991D01*
X3879423Y11835813D01*
X3889425Y11872463D01*
X3904763Y11896865D01*
X3924230Y11911001D01*
X3976456Y11933024D01*
X4027415Y11945276D01*
X4040978Y11947251D01*
X4077089Y11955794D01*
X4099908Y11973043D01*
X4114399Y12003978D01*
X4120211Y12026765D01*
X4130193Y12058302D01*
X4146116Y12095739D01*
X4153417Y12110293D01*
X4172904Y12154652D01*
X4177126Y12188091D01*
X4166185Y12214349D01*
X4156527Y12224651D01*
X4132873Y12253817D01*
X4111673Y12292773D01*
X4097354Y12332252D01*
X4093787Y12356026D01*
X4097899Y12371522D01*
X4111415Y12393001D01*
X4136103Y12422649D01*
X4173731Y12462652D01*
X4208112Y12497384D01*
X4255833Y12543524D01*
X4295518Y12578992D01*
X4325187Y12602128D01*
X4342864Y12611273D01*
X4343910Y12611355D01*
X4372497Y12604914D01*
X4411222Y12587566D01*
X4454141Y12562273D01*
X4482056Y12542530D01*
X4518993Y12514357D01*
X4584173Y12546928D01*
X4619322Y12563431D01*
X4648326Y12575149D01*
X4664635Y12579498D01*
X4684089Y12583837D01*
X4711332Y12594437D01*
X4714622Y12595967D01*
X4733332Y12606268D01*
X4744526Y12618890D01*
X4751035Y12639741D01*
X4755691Y12674730D01*
X4756611Y12683571D01*
X4762937Y12727449D01*
X4772670Y12757241D01*
X4788315Y12780079D01*
X4791864Y12783909D01*
X4814888Y12803117D01*
X4835575Y12812823D01*
X4838458Y12813110D01*
X4857952Y12818481D01*
X4863645Y12823729D01*
X4876563Y12828174D01*
X4906662Y12831645D01*
X4949894Y12833800D01*
X4989785Y12834348D01*
X5109362Y12834348D01*
X5153749Y12796355D01*
G37*
G36*
X1707444Y10515200D02*
G01*
X1707102Y10599497D01*
X1706830Y10698666D01*
X1706633Y10811435D01*
X1706510Y10936529D01*
X1706466Y11072678D01*
X1706501Y11218606D01*
X1706618Y11373042D01*
X1706820Y11534713D01*
X1707107Y11702344D01*
X1707151Y11724691D01*
X1709882Y13083888D01*
X6339648Y13083888D01*
X6339648Y10344256D01*
X4027096Y10341577D01*
X3756885Y10341286D01*
X3507198Y10341064D01*
X3277323Y10340914D01*
X3066545Y10340841D01*
X2874153Y10340847D01*
X2699433Y10340935D01*
X2541672Y10341109D01*
X2400157Y10341373D01*
X2274174Y10341728D01*
X2163011Y10342179D01*
X2065956Y10342729D01*
X1982293Y10343381D01*
X1911312Y10344139D01*
X1852298Y10345005D01*
X1804538Y10345983D01*
X1767320Y10347076D01*
X1739930Y10348288D01*
X1721655Y10349621D01*
X1711783Y10351080D01*
X1709482Y10352196D01*
X1708877Y10364273D01*
X1708334Y10396315D01*
X1707873Y10445134D01*
X1821379Y10445134D01*
X6228152Y10445134D01*
X6228152Y12983010D01*
X1821379Y12983010D01*
X1821379Y10445134D01*
X1707873Y10445134D01*
X1707855Y10447048D01*
X1707444Y10515200D01*
G37*
G36*
X2911626Y10882266D02*
G01*
X2916630Y10869459D01*
X2920011Y10844133D01*
X2922277Y10803031D01*
X2923436Y10764656D01*
X2924550Y10712264D01*
X2924269Y10676543D01*
X2921816Y10652936D01*
X2916411Y10636888D01*
X2907273Y10623840D01*
X2897557Y10613339D01*
X2864627Y10590270D01*
X2824135Y10584100D01*
X2784426Y10590613D01*
X2766218Y10604577D01*
X2751614Y10631174D01*
X2745229Y10661824D01*
X2745209Y10663509D01*
X2751175Y10677132D01*
X2763929Y10677143D01*
X2775747Y10665439D01*
X2778981Y10655209D01*
X2790981Y10631283D01*
X2814330Y10613526D01*
X2841101Y10606320D01*
X2859268Y10610846D01*
X2867397Y10619013D01*
X2873262Y10634032D01*
X2877470Y10659531D01*
X2880628Y10699136D01*
X2883252Y10754199D01*
X2885958Y10810534D01*
X2889050Y10848743D01*
X2893030Y10871941D01*
X2898402Y10883239D01*
X2904489Y10885811D01*
X2911626Y10882266D01*
G37*
D20*
%TO.C,U3*%
X58050000Y33825000D02*
X61950000Y33825000D01*
X58050000Y38875000D02*
X61950000Y38875000D01*
D10*
X56060000Y38655000D02*
G75*
G03*
X56060000Y38655000I-100000J0D01*
G01*
D18*
%TO.C,L2*%
X26226848Y32839000D02*
X26749352Y32839000D01*
X26226848Y34309000D02*
X26749352Y34309000D01*
%TO.C,C37*%
X30194267Y20110000D02*
X29901733Y20110000D01*
X30194267Y21130000D02*
X29901733Y21130000D01*
%TO.C,C11*%
X41345563Y36440000D02*
X33690000Y36440000D01*
X43650000Y38290000D02*
X42650000Y38290000D01*
X42410000Y37504437D02*
X42410000Y39290000D01*
X33690000Y36440000D02*
X33690000Y39290000D01*
X42410000Y44095563D02*
X41345563Y45160000D01*
X41345563Y45160000D02*
X33690000Y45160000D01*
X33690000Y45160000D02*
X33690000Y42310000D01*
X42410000Y37504437D02*
X41345563Y36440000D01*
X42410000Y44095563D02*
X42410000Y42310000D01*
X43150000Y37790000D02*
X43150000Y38790000D01*
%TO.C,R4*%
X49417300Y13403776D02*
X49417300Y13913224D01*
X48372300Y13403776D02*
X48372300Y13913224D01*
%TO.C,C33*%
X30300000Y12282667D02*
X30300000Y11990133D01*
X31320000Y12282667D02*
X31320000Y11990133D01*
%TO.C,R2*%
X45781500Y13403776D02*
X45781500Y13913224D01*
X46826500Y13403776D02*
X46826500Y13913224D01*
%TO.C,SW1*%
X23960000Y7158000D02*
X29040000Y7158000D01*
X29040000Y7158000D02*
X29040000Y2078000D01*
X29040000Y2078000D02*
X23960000Y2078000D01*
X23960000Y2078000D02*
X23960000Y7158000D01*
%TO.C,C2*%
X22430000Y4319333D02*
X22430000Y4611867D01*
X21410000Y4319333D02*
X21410000Y4611867D01*
D20*
%TO.C,D5*%
X17492200Y11665800D02*
X15832200Y11665800D01*
X15832200Y13165800D02*
X17492200Y13165800D01*
D10*
X19462200Y12415800D02*
G75*
G03*
X19462200Y12415800I-100000J0D01*
G01*
D18*
%TO.C,D6*%
X43272400Y21257600D02*
X38972400Y21257600D01*
X43272400Y21257600D02*
X43272400Y13957600D01*
X38972400Y21257600D02*
X38972400Y13957600D01*
%TO.C,C27*%
X24860267Y13764000D02*
X24567733Y13764000D01*
X24860267Y12744000D02*
X24567733Y12744000D01*
%TO.C,D1*%
X47680800Y11761200D02*
X47680800Y8901200D01*
X49600800Y11761200D02*
X47680800Y11761200D01*
X49600800Y8901200D02*
X49600800Y11761200D01*
%TO.C,SW2*%
X9220000Y7158000D02*
X14300000Y7158000D01*
X14300000Y7158000D02*
X14300000Y2078000D01*
X14300000Y2078000D02*
X9220000Y2078000D01*
X9220000Y2078000D02*
X9220000Y7158000D01*
%TD*%
M02*
